<svg version="1.1" id="レイヤー_1" xmlns="http://www.w3.org/2000/svg" x="0" y="0" viewBox="0 0 164.5 224.5" style="enable-background:new 0 0 164.5 224.5" xml:space="preserve"><style>.st0{fill:#6a3906}.st1{fill:#a40b5e}</style><path class="st0" d="M29.6 18.8c-.1.4-.4.6-.7.7-.6.1-1-.3-1.2-1.2-.1-.5-.3-.9-.4-1.3-.2-.4-.3-.7-.6-1.1-.1-.1-.2-.2-.4-.5-.2-.2-.3-.3-.3-.4 0-.1 0-.1.1-.2.1 0 .3.1.8.2.7.3 1.3.6 1.8 1 .5.5.8 1 1 1.7.1.5 0 .8-.1 1.1m3.8-4.6c-.2.3-.5.8-1 1.6-.1.1-.2.3-.4.6.5 1.8.8 3.2.9 4.3.6 0 1.2 0 1.7.1.6.1 1.1.3 1.5.7.2.2.3.5.4.8.1.2.1.5 0 .8-.1.2-.2.4-.5.5-.5.2-.9.1-1.3-.4-.3-.3-.5-.6-.8-.9-.3-.3-.6-.6-1-.7 0 1.5-.2 2.8-.7 3.9-.4 1.2-1.1 2.3-1.9 3.3-.2.3-.4.4-.4.4-.1 0-.2 0-.2-.1s.1-.3.3-.7c.6-1.1 1-2.2 1.1-3.2.3-1.4.2-3.1-.2-5.2-.2-1.4-.7-3-1.4-4.9-.4-1.1-1-2.8-2.1-5.2h2.1c.7 0 1 .2 1.1.4 0 .1 0 .3-.1.5s-.2.4-.3.5c.7 2.1 1.2 3.5 1.4 4.4.1-.4.1-1 .1-1.8 0-.4 0-.9-.1-1.6.3.1.9.4 1.6.7.5.2.7.4.7.7.3.1 0 .3-.5.5m8-6c-.7.2-1.2.4-1.6.6-.5.2-1.1.4-1.6.7.5 1.2.7 1.8.7 1.8 0 .1.1.3.1.5s-.2.5-.5.9-.6.5-.8.5c-.1 0-.2-.1-.3-.4-.1-.2-.1-.4-.2-.6-.3-.8-.5-1.5-.6-2-.7.3-1.7.7-3 1.3l-.6-.7c.4-.1.9-.3 1.7-.6.4-.2 1-.4 1.7-.7-.1-.3-.2-.7-.5-1.3-.1-.3-.3-.8-.6-1.5.4 0 1-.1 1.8-.1h.6c.2 0 .3.1.4.2.1.1-.1.4-.3.8l.2.6c.1.3.2.5.2.6.6-.2 1-.4 1.5-.6l.4-1.6c.3.2.9.4 1.3.6.5.2.7.4.8.5 0 .2-.3.3-.8.5m7.6 14c-.7.6-1.7 1.2-3 1.6-1.1.4-1.8.6-2.1.6-.5.1-.9 0-1.1-.2-.1-.1-.2-.4-.5-1-.1-.3-.2-.8-.3-1.1-.2-.6-.5-1.6-.9-2.9-.1-.3-.3-.8-.5-1.6-1.1.4-2 .8-2.9 1.2.7.1 1.2.1 1.6.2.6.1.9.2.9.4.1.2-.1.4-.4.7 0 1.3-.2 2.4-.7 3.4-.5 1.1-1.2 2.2-2.2 3.2-.4.4-.7.6-1 .9-.3.2-.5.3-.5.2-.1-.1 0-.3.2-.6.1-.2.4-.4.6-.7.6-.8 1.1-1.8 1.4-2.9.2-.7.3-1.6.2-2.7 0-.5-.1-1.2-.3-2-.3.2-.8.4-1.5.8l-.9-.7c.4-.1.9-.3 1.6-.6l-1.2-2.8c-.9.4-1.6.7-2.3 1.1l-.7-.8c.9-.3 1.8-.7 2.7-1l-.3-.9c-.2-.6-.5-1.2-.9-1.9h2.3c.2 0 .4.1.4.2.1.1 0 .4-.2.8.1.3.3.7.5 1.2.8-.3 1.8-.7 3-1.2l-.3-1.1c-.2-.6-.4-1.4-.7-2.2.3 0 .9.1 1.6.2.5.1.7.1.8.2.3.1.4.2.5.3.1.2-.1.5-.4.8l.3 1.1.5-.2.4-1.9c.5.2 1 .4 1.7.7.6.2.9.4.9.6 0 .2-.2.3-.7.5-.5.2-1.2.4-2.1.8l-.6.3c.2.7.4 1.7.7 3.1l.2-.1.3-1.7c.4.1.9.4 1.7.7.4.2.6.3.6.5s-.2.3-.6.5c-.7.2-1.3.5-1.8.7-.4.2-1.1.4-1.9.8 1.2 0 1.8.1 1.8.3 0 .2-.1.5-.4.7.1.2.2.6.3 1 .1.5.3.8.4 1.1l.4 1c.1.2.2.4.3.7.2.1.5.1 1.1-.1.5-.2.9-.4 1.2-.6.2-.1.3-.4.5-.6.1-.2.2-.5.2-.8.1-.6.1-1.3.1-2 0-.4 0-1 .1-1.7 0-.3.1-.5.2-.5s.2.2.2.4c0 .1.1.7.3 1.7.1.7.3 1.2.4 1.7.1.4.3.8.6 1 .2.1.4.2.6.5.1 0 0 .4-.4.7m-11.7-7.3 1.2 2.8 2.5-1c-.3-1.1-.6-2.1-.8-3-.7.2-1.6.6-2.9 1.2m26-5c-.4.2-.8.4-1.2.5.5.6.9 1.2 1.4 1.9.7 1 1 1.6 1.1 1.9.1.3 0 .7-.2 1.1-.2.4-.5.6-.8.7-.2 0-.4 0-.6-.2l-.7-.3c-1.3-.6-2.5-.6-3.6-.4-.7.1-1.3.3-1.8.6-.7.4-1 .9-.9 1.5.1.9 1.3 1.1 3.4.7.2 0 .6-.1 1-.3.5-.1.8-.2 1-.3.4-.1.8 0 1.1.2.3.2.5.5.6.9.1.5-.1.8-.4 1-.3.2-1 .4-1.8.5-1.3.2-2.5.3-3.6.1-1.5-.3-2.4-1-2.6-2.1-.2-1 .3-1.9 1.5-2.7.8-.5 2.1-.9 4.2-1.2.1 0 .3-.1.6-.1s.5 0 .6-.1c.4-.1.5-.3.4-.6-.1-.5-.6-1.3-1.4-2.4-.1 0-.7.3-2 .7-1.8.7-2.8 1-3 1.1h-.5c-.3 0-.6-.2-.8-.4-.2-.3-.4-.5-.5-.9-.1-.5.6-1.5 1.9-3-.9.1-1.5 0-2-.1s-1-.3-1.5-.7c-.4-.3-.6-.5-.7-.8 0-.1 0-.1.1-.2.1 0 .2 0 .4.1.1.1.3.1.6.2.6.1 1.2.2 1.8.1.8-.1 1.5-.4 2-.8-.8-.9-1.5-1.4-2.1-1.4h-.5c-.3 0-.4-.1-.4-.2 0-.2.1-.5.5-.8.3-.2.7-.4 1.2-.5.4-.1.8-.1 1.1 0 .2.1.4.1.5.2.3.4.4.6.7 1.1.2.5.4.8.5.9.5-.1.8-.2 1-.2.9-.2 1.4.1 1.5.6 0 .3-.3.7-1 1.3.4.4.9 1 1.6 1.7.8-.5 1.4-.8 1.6-.8.3-.1.6 0 .9.2.3.2.5.4.5.7.1.4-.1.7-.7 1m-5.2-2.2c-.6.3-1.1.7-1.7 1.2-.8.7-1.2 1.2-1.2 1.6.1.4.5.5 1.2.4.4-.1 1-.3 1.8-.6.7-.3 1.3-.6 1.7-.8-.7-.8-1.3-1.5-1.8-1.8m28.1 3.8c-.3.4-.7.5-1.2.6-.5 0-.8-.2-1-.7 0-.3-.1-.9-.2-1.6-.2-1.1-.4-2-.6-2.5-.4-1-1-1.5-1.8-1.5-1 0-2 1.1-3 3.1-.6 1.2-1 2.3-1.3 3.4-.1.4-.1.7-.1 1 0 .2.1.5.3.7.2.2.3.4.3.6 0 .3-.1.6-.4.8-.3.2-.5.4-.8.4-.6 0-1.2-.2-1.8-.5-1.9-1.2-2.9-3.5-3.1-7v-3c0-.5-.1-.9-.3-1.2-.1-.1-.2-.2-.3-.4-.1-.1-.2-.2-.2-.3 0-.2.1-.3.4-.3.4 0 .9.1 1.4.5 1.1.8 1.7 1.5 1.7 1.9 0 .1-.1.4-.4 1-.3.7-.4 1.7-.4 3 0 .5.1.9.2 1.4.1.4.3.8.5 1.2.3.5.6.8 1 .8.2 0 .4-.2.6-.6.6-1 1.1-2.1 1.6-3.1.8-1.2 1.5-2.2 2.2-2.9.7-.7 1.4-1.1 2.1-1.1 1.2-.1 2.1.3 3 1.1.8.8 1.4 1.8 1.8 3 .1.4.1.7.2 1 0 .5-.2.9-.4 1.2m14.7 5.6c-.7.6-1.5.8-2.6.7-1.9-.2-3-1.5-3.2-3.8-.1-.6 0-1.3 0-2.1-.9-.5-1.6-.9-1.9-1.3-.6-.6-.8-1.3-.7-2.1 0-.4.3-.9.7-1.6.3-.5.7-1 1-1.5.2-.3.3-.6.4-.8 0-.3-.2-.7-.6-1-.3-.3-.7-.5-1.1-.7-.3-.2-.5-.2-.5-.3 0-.1.2-.3.6-.3.3-.1.5-.1.7 0 .7.1 1.4.3 2.1.8.8.6 1.2 1.2 1.1 1.9 0 .3-.2.5-.5.5-.3.1-.6.1-.9.2-.3.1-.7.4-1.1.9-.4.4-.7.7-.9 1.1-.2.3-.3.6-.3.8 0 .4.3.8 1.1 1.2.4.2.8.3 1.3.4.4-1.2.8-2.5 1.2-3.7.5-1.6.8-2.8.9-3.7.1-.5 0-1-.1-1.6-.2-.5-.2-.8-.2-.8 0-.3.1-.3.2-.3.2 0 .5.3.9.8.3.4.6.7.8 1.1.3.5.4 1 .4 1.4 0 .4-.2.9-.4 1.3l-.6 1.2c-.9 1.9-1.6 3.4-1.9 4.5.5.3.7.4.9.6.3.3.4.6.4.9-.1.5-.5.7-1.3.6-.2 0-.3-.1-.4-.1-.1.9-.1 1.6.1 2.1.2.7.7 1 1.5 1.1 1.3.1 2-.5 2.1-1.8.1-1.3-.1-2.8-.9-4.3-.1-.4-.4-.8-.7-1.4-.1-.2-.2-.3-.2-.4 0-.1.1-.1.2-.1s.2.1.4.2c.2.2.6.5 1 1.1 1.6 2.1 2.3 4 2.1 5.9-.1 1.1-.5 1.9-1.1 2.4m25 5.6c-.5.1-1 .3-1.5.7-.2.2-.4.4-.8.5-.1 0-.3 0-.6-.2-.4-.2-.9-.6-1.6-1.1-.6-.5-1.2-1-1.8-1.7-.3-.3-.7-.9-1.1-1.6-.5-.7-.8-1.3-1-1.8-.1-.3-.1-.4 0-.5.1 0 .2.1.4.3.4.4 1 1 1.9 1.8.9-.3 1.8-.7 2.6-1.2-1.4-.3-3.4-.7-6-1.3 0 .1-.3 1-.8 2.6.4 0 1.1.1 2 .3.4.1.6.2.6.2 0 .1-.2.2-.6.3-.8.1-1.6.2-2.6.2-.6 0-1.6.1-3 .1-.3.1-.7.2-1.1.2-.2 0-.3-.2-.5-.6 0-.1-.2-.7-.5-1.8.6.1 1.4.3 2.5.5.3.1.8.1 1.2.2l.8-2.7c-.6-.1-1.2-.3-1.9-.4 0-.1-.1-.4-.2-.7-.5 1.1-1.2 1.9-1.9 2.5-1.1.8-2.5 1.4-4.2 1.8-.4.1-.7.1-.7 0v-.1c0-.1.2-.2.6-.4 1.3-.6 2.3-1.2 2.9-1.9.4-.4.9-1.1 1.4-2.1.2-.4.4-1 .7-1.9.2-.7.4-1.2.5-1.7.1-.4.2-1 .4-1.9.2.1.4.2.5.3.2-.5.4-1 .5-1.7.3-1 .5-1.9.7-2.7.1-.5.3-1.2.4-2.2l1.2.8c.2.1.5.4 1 .8l1 .2c.1-.3.1-.6.2-.9.1-.5.2-1.1.3-1.8.3.1.7.3 1.4.7.6.3.9.6.9.8 0 .2-.2.3-.7.5-.1.3-.2.7-.3 1l1.5.3.1-.5c.1-.2.1-.4.2-.5.1-.2.2-.8.4-1.7.7.4 1.4.8 2 1.2.3.2.4.4.4.6 0 .1-.3.3-.8.4l-.3.9 1.4.3 1.1-.9c.3.3.6.7 1.1 1.2.4.5.6.8.5 1 0 .1-.1.2-.3.3-.2.1-.4.1-.6.1l-.4 1.4c-.3 1-.4 1.6-.4 1.6l-.1.5c-.1.2-.1.3-.3.5.2.3.6.7 1 1.3.3.4.5.7.4.9-.1.1-.3.1-.8 0-.7-.2-1.6-.4-2.7-.6-1.9-.4-4.8-1.1-9-2-.2.6-.5 1.4-.9 2.5-.1.2-.2.5-.3.7.8.3 1.6.5 2.4.7 1.8.4 4.6 1 8.3 1.8.2-.2.6-.5 1.2-1 .3.3.7.9 1.2 1.5.2.3.3.5.2.6-.1.1-.3.1-.7 0-.5-.1-1.2-.3-2.1-.5l-.5-.1c.1.2.4.6.7 1.1.2.4.3.6.2.8 0 0 0 .1-.1.1-.1.1-.4 0-.8-.2-.2 0-.6 0-1.2.1h-.7c.5.4 1.2.8 2 1.1.9.4 2 .8 3.3 1.3.2 0 .3.1.3.1.1 0 .1.1.1.2.3.4.2.4-.2.5m-2.8-10.2c-.3 0-.5-.1-.6-.2-.1-.1-.1-.3 0-.6-1.5-.4-4.1-1-8.1-1.8-.2.2-.6.4-1.2.5.1 0 .3.3.9.8l8.9 2c.3-.2.6-.5.8-.7h-.7m.2 3.5c-.5-.1-1.1-.3-2-.5-1.1-.3-2.8-.6-5-1.1-.7-.1-1.4-.3-2-.3l-.2-.9c.5.1 1.1.3 2 .5 1.2.3 2.9.6 5.3 1.2.3-.2.7-.6 1.3-1.1.2.3.6.7 1.1 1.4.3.4.5.7.4.8-.2.1-.4.1-.9 0m-7-6.4.4-1.8-1.5-.3c-.2.8-.3 1.4-.4 1.8l1.5.3zm.5-2.4.4-1.6-1.4-.3-.4 1.6 1.4.3zm3.1 1.4-1.4-.3-.4 1.7 1.3.3.5-1.7zm-.8-2.6c-.1.5-.2 1-.4 1.6l1.4.3c0-.1.2-.7.5-1.6l-1.5-.3zm2.8 3.1-.5 1.7 1.5.3c.1-.4.3-1 .5-1.7l-1.5-.3zm2.2-2-1.5-.3-.6 1.6 1.5.4.6-1.7zm14.4 9.6c-.5-.2-1.1-.4-1.6-.6l-.5-.2-1.7 3.9 1.3-.1c.2 0 .5-.1 1-.1.4 0 .6 0 .6.1s-.1.2-.5.3c-.3.1-.6.2-1 .3-1.1.3-2.1.6-2.7.7-1.5.3-2.6.6-3.2.7-.3.2-.6.3-1.1.5-.2 0-.4-.3-.5-.8l-.5-1.6c2 .1 3.5.2 4.6.1l1.9-4.5c-.2-.1-.4-.1-.6-.2-.7-.2-1.4-.4-2-.5l-.1-1.1c1.3.5 2.3.9 3.1 1.1l1.5-3.5c.3-.7.6-1.6 1.1-2.8.3.3.8.7 1.4 1.4.4.5.6.8.5 1-.1.2-.4.4-1 .4l-1.7 4.1.3.1 1.3-1c.1.1.3.6.7 1.5.2.4.3.7.2.8-.2.2-.5.1-.8 0m9.7 5.7c-1.3-.5-2.2-.9-2.7-1.1-.6-.2-2.2-.8-4.7-1.7.2.3.3.5.4.8.2.4.2.7.2.8-.1.1-.3.1-.8-.1-.2.1-.3.2-.5.2l2.2.8c.7.3 1.7.6 2.9 1 .2-.1.6-.4 1.2-.7.2.4.5.9.9 1.6.2.4.3.8.2 1-.1.2-.4.3-1 .2-.2.4-.6 1-1.1 1.7-.3.4-.7.9-1.3 1.7-.7.9-1.5 1.5-2.2 1.7-.4.1-.7.2-1.1.2-.4 0-.7-.1-.9-.2-.1-.1-.1-.3 0-.6.1-.4.2-.6.2-.7 0-.3-.1-.7-.1-1-.1-.5-.2-.7-.1-.8 0-.1.3.1.6.3.5.3.9.5 1.1.4.3 0 1-.6 1.9-1.7.5-.7 1.1-1.5 1.6-2.4l-2.1-.7c.2.3.4.8.7 1.4.2.4.3.7.2.9-.1.2-.4.2-.9 0-.5.4-1.3.9-2.3 1.4-1.2.6-2.5 1-3.9 1.2-.7.1-1.3.2-1.8.1-.2 0-.3 0-.3-.1s.1-.2.3-.3c.3-.1.8-.2 1.4-.5 1.7-.6 3.2-1.6 4.5-2.7.4-.3.9-.8 1.7-1.6L140 22c.1.3.3.7.6 1.4.2.4.2.7 0 .8-.1.1-.4.1-.8-.1-.9.5-1.7.8-2.4.9-.6.1-1.4.3-2.5.4-1.2.2-2.2.1-3 0-.2 0-.4-.1-.4-.1 0-.1.1-.1.4-.2.7-.1 1.7-.3 3-.7 1.2-.3 2-.7 2.6-1 .8-.4 1.6-.9 2.3-1.5l-.7-.3c-.8.3-1.7.4-2.8.5-.5.1-1 .1-1.4.1-.3 0-.4 0-.4-.1s.1-.1.4-.2c1-.3 1.9-.6 2.6-1 .4-.2.9-.5 1.4-.8.3-.2.7-.5 1.1-.9-1.1-.4-2.1-.7-3-1l-.1-1c1 .5 1.9.8 2.6 1.1l6.7 2.5 1.8-1.1c.2.4.6 1.1 1 1.9.2.5.3.8.2 1-.1.1-.4 0-1-.2m-.1-7-.8 1.8c-.2.4-.5 1.1-.9 2-.1.3-.5.5-1 .6-.5.1-.8 0-1.1-.1-.1-.1-.1-.3.1-.7 0-.1.1-.2.2-.4.1-.1.1-.2.1-.2l-3.3-1.2c-.2.3-.6.5-1 .6-.5.1-.8 0-1-.1-.1-.1-.1-.3.1-.7.1-.3.2-.6.4-.9.4-.9.9-2.1 1.5-3.8.1-.4.3-1 .6-1.9l1.1 1.1c.1 0 .3.4.8.9 1.3.5 2.3.8 2.9 1 .2-.1.5-.3 1.1-.7.6.9 1 1.5 1.1 1.9.1.2.1.3 0 .4-.1.2-.4.3-.9.4m-5-2.5c-.1.3-.3.9-.6 1.6.4.1.7.3 1 .3.4.1.9.3 1.7.5.1.4.1.7.1.8-.1.1-.3 0-.7-.1-.2-.1-.6-.2-1.2-.4l-1.1-.4-.6 1.5 3.3 1.2c.8-1.7 1.4-2.9 1.7-3.7-.9-.4-2-.8-3.6-1.3M45.3 205.1v-.6c.9 0 1.3-.2 1.3-.5v-2.5l-2.2-3.6c-.4-.7-.9-1.1-1.5-1.1v-.6h4.5v.6c-.6 0-1 .1-1 .4 0 .1.1.2.2.5l1.8 2.9 1.6-2.9c0-.1.1-.3.1-.5s-.4-.3-1.1-.3v-.6h3.2v.6c-.5 0-.8.1-1.1.4l-2.4 4.2v2.7c0 .3.4.5 1.3.5v.6h-4.7zm12-.7c-.1.3-.3.5-.5.6-.3.1-.6.2-.9.2-.3 0-.5-.1-.8-.2-.2-.1-.4-.3-.5-.6-.3.2-.6.4-.8.6-.2.1-.5.2-.9.2-.5 0-.9-.1-1.2-.3-.3-.2-.5-.5-.5-.9 0-.3.1-.6.2-.9.1-.2.3-.5.6-.6.3-.2.6-.3 1-.5.4-.1.9-.2 1.4-.3v-.4c0-.4 0-.7-.1-.9-.1-.2-.3-.3-.6-.3s-.5 0-.7.1c-.2.1-.3.2-.3.5 0 0 .1.1.1.2v.2c0 .4-.2.6-.7.6-.4 0-.6-.2-.6-.7 0-.2 0-.4.1-.6.1-.2.2-.4.4-.5.2-.1.5-.3.8-.3.3-.1.7-.1 1.1-.1.3 0 .5 0 .8.1.3.1.5.2.7.3.2.1.4.3.5.6.1.2.2.5.2.8v2.8c0 .3.1.4.3.4h.2c.1 0 .1-.1.2-.1h.5zm-2.8-2.2c-.5.1-.9.2-1.1.4-.2.2-.4.5-.4 1 0 .3 0 .5.1.6.1.1.3.2.5.2s.4 0 .5-.1l.3-.3c.1-.1.1-.3.1-.4v-1.4zm6.8 2.9v-.6c.3 0 .4 0 .5-.1l-1-2c-.1.1-.2.1-.3.2-.1.1-.2.1-.3.2v1.2c0 .3.2.5.6.5v.6h-3.2v-.6c.6 0 .8-.2.8-.6v-6.6c0-.4-.3-.6-.9-.6v-.6l2.7-.4v6c.2-.1.3-.2.5-.4s.4-.3.6-.5c.2-.2.3-.3.4-.5.1-.1.2-.3.2-.4 0-.1-.2-.1-.7-.1v-.5h3.1v.5c-.4 0-.8.1-1.4.4l-.4.4-.5.5 1.5 2.6c.3.4.6.6.9.6h.4v.6h-3.5zm3.8 0v-.6c.6 0 .9-.2.9-.7v-2.6c0-.6-.3-1-.8-1v-.5l2.6-.4v4.5c0 .4.3.7 1 .7v.6h-3.7zm1.6-7c-.3 0-.5-.1-.6-.2-.1-.1-.2-.4-.2-.7 0-.6.3-.8.8-.8s.8.3.8.8c0 .3-.1.5-.2.7-.1.1-.3.2-.6.2m2.4 7v-.6c.6 0 .9-.2.9-.7v-2.6c0-.6-.3-1-.8-1v-.5l2.6-.4v4.5c0 .4.3.7 1 .7v.6h-3.7zm1.6-7c-.3 0-.5-.1-.6-.2-.1-.1-.2-.4-.2-.7 0-.6.3-.8.8-.8s.8.3.8.8c0 .3-.1.5-.2.7-.1.1-.3.2-.6.2m10.2 7v-.6c.3 0 .5 0 .6-.1.1-.1.2-.2.2-.4v-2.4c0-.5-.1-.8-.2-1-.1-.2-.4-.3-.7-.3-.3 0-.5.1-.7.3-.2.2-.3.4-.4.8v2.5c0 .2.1.4.2.6.1.1.3.2.6.2v.6h-3.3v-.6c.3 0 .4-.1.6-.2.1-.1.2-.3.2-.6v-1.8c0-.6-.1-1-.2-1.3-.1-.3-.4-.4-.7-.4-.4 0-.7.1-.9.4-.2.3-.3.6-.3 1.1v2.2c0 .4.3.6.8.6v.6h-3.3v-.6c.5 0 .7-.2.7-.6v-3.3c0-.2-.3-.3-.9-.3v-.5l2.5-.5c.1.1.1.2.1.4v.5c.2-.3.5-.5.8-.6.3-.1.6-.2 1-.2.3 0 .7.1 1 .2.3.2.5.4.7.7.2-.3.5-.6.9-.7.3-.2.7-.2 1.1-.2.3 0 .6 0 .8.1.3.1.5.2.7.3.2.2.4.4.5.6.1.3.2.6.2.9v2.6c0 .4.3.6.8.6v.6h-3.4zm10-2.9c0 .5-.1 1-.3 1.4-.2.4-.4.7-.7.9-.3.2-.6.4-1 .6-.4.1-.7.2-1.1.2-.4 0-.8-.1-1.2-.2-.4-.1-.7-.3-1-.6-.3-.2-.5-.6-.7-.9-.2-.4-.2-.8-.2-1.2 0-.6.1-1.1.3-1.4.2-.4.4-.7.7-.9.3-.2.6-.4 1-.5.4-.1.8-.2 1.2-.2.4 0 .8.1 1.2.2.4.1.7.3 1 .6.3.3.5.6.7.9 0 .3.1.7.1 1.1m-3.1 2.5c.3 0 .5-.1.6-.2.2-.1.3-.3.3-.5.1-.2.1-.4.1-.6V202c0-.3-.1-.6-.1-.9-.1-.3-.2-.5-.4-.7-.2-.2-.4-.3-.7-.3-.3 0-.5.1-.7.2-.2.1-.3.3-.4.5-.1.2-.1.4-.1.6v1.4c0 .3.1.6.1.9.1.3.2.5.4.7.4.2.6.3.9.3m7.3.4v-.6c.8 0 1.2-.3 1.2-1v-5.7c0-.7-.4-1.1-1.3-1.1v-.6h7.6l.2 2.6-.9.1c-.1-.4-.2-.8-.3-1.1-.1-.3-.3-.5-.6-.6-.2-.1-.5-.2-.8-.2-.3 0-.7-.1-1-.1-.5 0-.7.2-.7.5v2.3c0 .3.2.4.7.4.2 0 .4 0 .5-.1.1 0 .3-.1.3-.2.1-.1.1-.2.2-.4 0-.2.1-.4.1-.7h.7v3.5h-.7v-.7c0-.1-.1-.3-.2-.4-.1-.1-.2-.2-.4-.3-.2-.1-.5-.1-.8-.1-.2 0-.3 0-.3.1-.1.1-.1.1-.1.2v2.4c0 .7.5 1 1.4 1v.6h-4.8zm13.1-.7c-.1.3-.3.5-.5.6-.3.1-.6.2-.9.2-.3 0-.5-.1-.8-.2-.2-.1-.4-.3-.5-.6-.3.2-.6.4-.8.6-.2.1-.5.2-.9.2-.5 0-.9-.1-1.2-.3-.3-.2-.5-.5-.5-.9 0-.3.1-.6.2-.9.1-.2.3-.5.6-.6.3-.2.6-.3 1-.5.4-.1.9-.2 1.4-.3v-.4c0-.4 0-.7-.1-.9-.1-.2-.3-.3-.6-.3s-.5 0-.7.1c-.2.1-.3.2-.3.5 0 0 .1.1.1.2v.2c0 .4-.2.6-.7.6-.4 0-.6-.2-.6-.7 0-.2 0-.4.1-.6.1-.2.2-.4.4-.5.2-.1.5-.3.8-.3.3-.1.7-.1 1.1-.1.3 0 .5 0 .8.1.3.1.5.2.7.3.2.1.4.3.5.6.1.2.2.5.2.8v2.8c0 .3.1.4.3.4h.2c.1 0 .1-.1.2-.1h.5zm-2.7-2.2c-.5.1-.9.2-1.1.4-.2.2-.4.5-.4 1 0 .3 0 .5.1.6.1.1.3.2.5.2s.4 0 .5-.1l.3-.3c.1-.1.1-.3.1-.4v-1.4zm2.8 2.9v-.6c.6 0 .8-.2.8-.7v-2.7c0-.6-.3-.9-.9-.9v-.5l2.7-.4v1.1c.1-.1.1-.2.2-.4.1-.1.2-.2.3-.4.1-.1.3-.2.4-.3.1-.1.3-.1.5-.1.7 0 1.1.3 1.1 1 0 .6-.2.8-.7.8-.4 0-.6-.2-.6-.6v-.2h-.1c-.2 0-.4.1-.6.2-.1.2-.3.3-.3.6-.1.2-.1.5-.2.7v2c0 .4.3.6 1 .6v.6h-3.6zm13.3 0v-.6c.3 0 .5 0 .6-.1.1-.1.2-.2.2-.4v-2.4c0-.5-.1-.8-.2-1-.1-.2-.4-.3-.7-.3-.3 0-.5.1-.7.3-.2.2-.3.4-.4.8v2.5c0 .2.1.4.2.6.1.1.3.2.6.2v.6h-3.3v-.6c.3 0 .4-.1.6-.2.1-.1.2-.3.2-.6v-1.8c0-.6-.1-1-.2-1.3-.1-.3-.4-.4-.7-.4-.4 0-.7.1-.9.4-.2.3-.3.6-.3 1.1v2.2c0 .4.3.6.8.6v.6h-3.3v-.6c.5 0 .7-.2.7-.6v-3.3c0-.2-.3-.3-.9-.3v-.5l2.5-.5c.1.1.1.2.1.4v.5c.2-.3.5-.5.8-.6.3-.1.6-.2 1-.2.3 0 .7.1 1 .2.3.2.5.4.7.7.2-.3.5-.6.9-.7.3-.2.7-.2 1.1-.2.3 0 .6 0 .8.1.3.1.5.2.7.3.2.2.4.4.5.6.1.3.2.6.2.9v2.6c0 .4.3.6.8.6v.6h-3.4zm-87.2 19.1v-.9c1.3 0 2-.4 2-1.3v-4.2c-.1-.1-.3-.1-.6-.2-.2 0-.5-.1-.9-.1h-2.5c-.5 0-1 .1-1.3.2v4.2c0 .8.6 1.3 1.9 1.3v.9h-7.3v-.9c1.4 0 2.1-.4 2.1-1.3v-9c0-1.1-.7-1.6-2.1-1.6v-.9H33v.9c-1.2 0-1.9.5-1.9 1.6v3.4c.2.1.4.1.6.1H35c.7 0 1.2-.1 1.4-.2v-3.4c0-1.1-.7-1.6-2-1.6v-.9h7.3v.9c-1.2 0-1.9.5-1.9 1.6v9c0 .8.6 1.3 1.9 1.3v.9h-7.3zm16 0v-.8c.2 0 .4-.1.6-.1.2 0 .4-.1.6-.1.2 0 .3-.1.4-.1.1 0 .2-.1.2-.2s0-.1-.1-.2c0-.1-.1-.2-.1-.3l-.9-2.5c-.1-.2-.2-.3-.4-.3-.2-.1-.4-.1-.7-.1h-3c-.4 0-.7.1-.8.4l-.7 2.1c0 .1 0 .1-.1.2v.3c0 .5.6.8 1.7.8v.9h-4.8v-.9c.8-.1 1.3-.5 1.7-1.4l4.9-11.6 1.9.3 4.8 12c.1.2.1.3.3.4.1.1.3.2.4.2.2.1.3.1.5.1s.3.1.5.1v.8h-6.9zm-1.7-10.6-1.6 3.9c-.2.3-.2.5-.2.6 0 .1.2.2.6.2H50c.3 0 .5 0 .5-.1s-.1-.4-.4-1.1l-1.4-3.5zm10.4 10.6v-.9c1.4 0 2.1-.6 2.1-1.7v-9.3c0-.4-.3-.6-.8-.6-.4 0-.8.1-1.1.2-.3.1-.6.4-.8.6-.2.3-.4.6-.6 1.1-.2.4-.3.9-.4 1.5l-1.3-.2.6-4.6c.4.1.7.1 1.2.1h10.2c.4 0 .8-.1 1.2-.1v4.5l-1.2.1c-.1-1.1-.3-1.9-.7-2.4-.4-.5-1.1-.8-2-.8-.6 0-.9.2-.9.5v9.3c0 1.2.7 1.7 2.2 1.7v.9h-7.7zm17.1 0v-.8c.2 0 .4-.1.6-.1.2 0 .4-.1.6-.1.2 0 .3-.1.4-.1.1 0 .2-.1.2-.2s0-.1-.1-.2c0-.1-.1-.2-.1-.3l-.9-2.5c-.1-.2-.2-.3-.4-.3-.2-.1-.4-.1-.7-.1h-3c-.4 0-.7.1-.8.4l-.7 2.1c0 .1 0 .1-.1.2v.3c0 .5.6.8 1.7.8v.9h-4.8v-.9c.8-.1 1.3-.5 1.7-1.4l4.9-11.6 1.9.3 4.8 12c.1.2.1.3.3.4.1.1.3.2.4.2.2.1.3.1.5.1s.3.1.5.1v.8h-6.9zm-1.6-10.6-1.6 3.9c-.2.3-.2.5-.2.6 0 .1.2.2.6.2h2.5c.3 0 .5 0 .5-.1s-.1-.4-.4-1.1l-1.4-3.5z"/><path class="st0" d="M97.6 222.1c0 .2-.1.4-.2.7-.1.3-.3.5-.5.7-.2.2-.5.4-.9.6-.3.2-.7.2-1.1.2-.8 0-1.5-.1-1.9-.4-.4-.3-.7-.6-.8-1-.3-.8-.5-1.5-.8-2.2-.2-.7-.4-1.2-.7-1.7-.2-.5-.5-.8-.8-1.1-.3-.3-.7-.4-1.2-.4-.3 0-.4 0-.5.1v4.3c0 .8.6 1.2 1.8 1.2v.9h-7v-.9c1.2 0 1.8-.4 1.8-1.2v-9.5c0-.8-.6-1.2-1.9-1.2v-.9h8.3c.7 0 1.3.1 1.8.3.5.2.9.4 1.2.7.3.3.6.7.7 1.1s.2.9.2 1.4c0 .9-.4 1.7-1.1 2.3-.7.6-1.7 1-2.9 1.1.5.1.9.1 1.3.2s.7.2.9.4c.2.2.5.3.6.6.2.2.3.5.5.8.2.4.3.9.5 1.3l.3 1.2c.1.3.2.6.4.8.1.2.4.3.6.3.3 0 .5-.3.7-.9l.7.2zm-8.5-5.5c.4 0 .7 0 1-.1.3 0 .5-.2.8-.3.2-.2.4-.4.5-.8.1-.3.2-.8.2-1.4 0-.5-.1-.9-.2-1.2-.1-.3-.3-.6-.5-.8-.2-.2-.4-.3-.7-.4-.3-.1-.6-.1-.9-.1h-.4c-.4 0-.6.3-.6 1v3.8c0 .1.2.2.3.2h.5z"/><path class="st0" d="M104.8 224.2v-.8c.2 0 .4-.1.6-.1.2 0 .4-.1.6-.1.2 0 .3-.1.4-.1.1 0 .2-.1.2-.2s0-.1-.1-.2c0-.1-.1-.2-.1-.3l-.9-2.5c-.1-.2-.2-.3-.4-.3-.2-.1-.4-.1-.7-.1h-3c-.4 0-.7.1-.8.4l-.7 2.1c0 .1 0 .1-.1.2v.3c0 .5.6.8 1.7.8v.9h-4.8v-.9c.8-.1 1.3-.5 1.7-1.4l4.9-11.6 1.9.3 4.8 12c.1.2.1.3.3.4.1.1.3.2.4.2.2.1.3.1.5.1s.3.1.5.1v.8h-6.9zm-1.7-10.6-1.6 3.9c-.2.3-.2.5-.2.6 0 .1.2.2.6.2h2.5c.3 0 .5 0 .5-.1s-.1-.4-.4-1.1l-1.4-3.5zm17.9 10.6v-.9c.8 0 1.2-.1 1.2-.2s0-.2-.1-.4-.2-.4-.4-.7l-2.8-4.2-.8.7c-.2.1-.3.3-.4.5-.1.1-.2.3-.2.6v2.5c0 .4.1.7.4.9.3.2.7.3 1.4.3v.9h-7v-.9c1.2 0 1.8-.4 1.8-1.3v-9.3c0-.9-.7-1.3-2-1.3v-.9h7.1v.9c-1.2 0-1.8.4-1.8 1.3v4.6l4.4-4.3.6-.6c.1-.2.2-.4.2-.6 0-.3-.5-.4-1.4-.4v-.9h5.7v.9c-.4 0-.7.1-.9.2-.3.1-.5.2-.8.3-.2.1-.5.3-.8.6-.3.2-.6.5-1 .9l-2.3 2.2 4.4 6.4c.3.4.6.7 1 1 .4.2.9.4 1.5.4v.9h-7zm18.9-11.1c0-1.1-.7-1.6-2.1-1.6v-.9h5v.9c-1.1 0-1.7.5-1.7 1.6v6.1c0 .8-.1 1.5-.2 2.2-.2.7-.4 1.2-.8 1.7s-.9.8-1.6 1.1c-.7.3-1.6.4-2.6.4-.8 0-1.6-.1-2.2-.3-.7-.2-1.3-.5-1.7-.9-.5-.4-.9-.9-1.1-1.4-.3-.6-.4-1.2-.4-1.8V213c0-.9-.6-1.3-1.9-1.3v-.9h7.2v.9c-1.3 0-1.9.4-1.9 1.3v6.7c0 .4 0 .9.1 1.3.1.5.2.9.4 1.2.2.4.5.7.9.9.4.2.9.4 1.5.4 1.2 0 2.1-.3 2.6-1s.8-1.6.8-2.9v-6.5z"/><path class="st1" d="M43.6 159.9c-.2-7.6 1.1-15.2 2.5-22.8 1-5.2 3.9-9.4 6.8-13.7 1.9-2.8 4.1-5.5 6.2-8.2 1-1.2 3.8-4.1 5.4-3.9 2.5.2 3.3 1.7 3.9 4.7 2.1 5.7 2.1 10 3.1 15.1.7 3.9.6 8 1.7 11.7 1.6 5.1.2 10.1 0 15.1-.3 8-4 14.8-9 20.9-2 2.4-3.6 4.9-5.5 7.4-1.5 2-2.3 2.1-4.1.5-.9-.8-1.6-1.9-2.2-2.9-1-1.7-1.7-3.5-2.6-5.2-.3-.6-.9-1.2-.9-1.8 0-3-1.4-5.2-3.2-7.3-2.4-2.6-2.6-6-2.1-9.6m25.2-7.7c-2.6-.7-4.8-1.3-7.1-1.9-.2 3-.4 5.4-.6 7.9-.1 1.3-.2 2.7-.5 4-.4 1.3-1.4 1.3-2.5.7-1.7-1-1.4-2.6-1.3-4.3.3-3 .4-6.1.6-9.1-2.7-.6-5-1.1-7.7-1.7.1 6-2.2 11.5-.4 16.9 1.7 5.2 4 11.4 7.6 16.3 4.4-6.2 7.6-11.7 10.1-18.6 1.2-3.2 1.1-6.5 1.8-10.2m-18.4-7.1c2.3.4 4.6.8 7.2 1.3.8-3.6 1.2-7.2 2.7-11 .2-.6 1.1-.6 1.3 0 2 4.1-.6 8 0 11.6 2.3.5 5.1 1.1 7.3 1.6.4-1 .3-1.9.3-2.6 0-3.7-.5-7.3-1.4-10.9-.9-3.6-.8-7.4-1.5-11-.4-2.4-.5-4.7-1.7-7.6-.1-.3-.5-.3-.8 0-1.1 1.1-2.1 2.1-2.9 3.2-1.2 1.6-2.2 3.4-3.3 5.1-3.7 5.8-7.2 12.1-7.2 20.3"/><path class="st0" d="M98.2 135.7c4.2 1.3 6.5 1.3 11.8 3.4 1.8.7 4.3 2 5.4 3.3 1.6 2 3 4.4 3.6 6.8 1.3 4.8 1.3 10.1-.4 14.7-.5 1.4-2.4 4.1-3.5 6.2-2.8 5.7-7.2 9.7-12.4 13-3.1 2-6.5 2.5-10.1 1.3-.8-.3-1.2-1.3-.9-2.1.4-.9 1.1-1.5 2.3-2 3.1-1.1 5.2-3.7 7.1-6.3 2.9-3.8 5.9-7.6 8.2-11.7 2.7-4.8 2.9-9.9-.4-14.8-.9-1.3-2.7-3.6-6.1-4.7-3.1-.8-5.7-1.5-8.6-2.2-1.5-.4-2.5-1.3-2.8-2.8-.6-3.1-1.4-6.2-1.3-9.3.2-4.2-.4-8.2-.8-12.3-.2-2.4-.3-3.3.4-4.5.6-1 1.8-1.6 3-1.2 2.4.8 3.1 2.8 3.3 5.8.5 6.7.2 13.3 2.2 19.4m-74.5 12.9c-2.5 13.9-2.8 27.1-4.3 40.6-.1 1.2-1.1 2-2.3 2-1.6 0-1.7-.5-1.7-2.5 0-3.2.1-6.4.2-9.5.3-9 .1-18.1.8-27.1.4-5.7 1.6-11.3 2.7-16.9 1.6-8.2 3.3-16.3 5.1-24.5.3-1.4.7-2.8 1.6-3.9.7-.8 1.9-.9 2.7-.2 1.2 1 1.6 2.5 1.6 4.2 0 2.7-.2 5.5-.8 8.2-1.2 5.8-2.8 11.5-4 17.3-.3 1.3-.4 2.8.1 4 2.2 6.2 4.8 12.3 6.9 18.6 1.5 3.3 2.7 6.1 4.8 8.8 1.7 2.3 2.6 5.2 3.7 7.9.8 1.8.3 3.2-1.1 3.7-1.1.4-3.6-.5-4.1-1.8-1.5-3.7-2.9-7.4-4.4-11-.2-.4-.3-.9-.5-1.3-2.8-4.3-3.7-8.7-5.9-13.5-.1-.9-.8-2.4-1.1-3.1m137 39.9c-1.4.7-6-2.8-7.7-5.2-3.9-5.6-7.7-11.3-11.7-16.9-1.5-2.1-3.5-3.8-5.2-5.7-1.5-1.7-1.6-3.6-.6-5.6.4-.8.6-1.7 1.1-2.4 4.7-7.1 9.4-14.1 14-21.2 1.7-2.6 2.9-5.6 4.8-8 2-2.5 3.2-5.7 6-7.6.9-.6 2.2-.4 2.8.5.5.9.3 2-.6 3.3-3.6 5.3-6.8 10.9-9.1 16.9-2 5.1-10.1 17.2-11.2 18.7-1 1.3-1.1 2.3-.2 4 2.8 5.1 6.9 9.1 10.5 13.5l.3.3c2.2 3 4.4 5.9 6.6 8.9 1.4 2 2.5 5.6.2 6.5m-42.9-69.4c0 .5 0 .9-.1 1.4-.4 2.9-3 4.9-5.4 4.9-3.8-.5-5.8-.9-6.7-4.5-.2-.8-.1-1.7-.2-2.4-.1-2.5 2.5-4.4 3.7-4.8 1.3-.4 2.6-.6 4.5-.1 1.9.3 4.3 2.8 4.2 5.5M0 135.2c.3-2.1 1.6-3.3 2.6-3.9 1.7-.6 3.2-2.4 5.3-1.4.8.4 1.9 1 2.2 1.8 1.3 2.8 1.9 5.8 1 8.9-.7 2.3-2.3 3.3-4.6 3-4.1-.6-6.7-4-6.5-8.4"/><path class="st0" d="M41.2 130.4c-.2 2.8-2.9 5.7-5.2 5.4-1.7-.2-4.5-3.1-4.5-4.6.2-3.6 2.1-6 4.8-5.9 2.7.1 5.1 2.6 4.9 5.1m78.4-29.6c-.2-.5 0-1.5.1-2.3.2-1.7.4-5.1.3-6.4-.1-1-.4-3.1-.6-4.2-.1-.3-.2-.9-.5-1.1-1.4-1.3-3-2-3.8-2.1-1.6-.3-3.1-.3-4.6-.8-.7 2-3.8 15.9-4 16.6-.2.5-.7.6-1.2.6-.7 0-1.2.1-1.8.1-.9-.1-1.4-.8-1.1-1.6.3-1 3.4-15.6 3.8-17.2-.6-.2-3.7-1.1-5.7-3.7-.3.1-7.6 1.7-10.7 2-2 .2-5 .7-9.3.5-1.8-.2-4.6-.6-6.7-2.1-.1-.1-.3-.3-.3-.5.2-.3.8-.1 1.1.1 1.2.4 4.2 1.3 6.1 1.4 1.2.2 8-.5 10.2-.9 1.7-.3 8.3-1.5 9.4-1.9.4-.1.8.2 1.1.6 2.1 3.2 6.9 4.2 8.5 4.8.9.4 4.5.9 5.2.9.8 0 3.1 1.7 4.1 2.3 1.2.7 1.2 2 1.2 2.2.1.7.5 6.1.1 10.4-.1 1-.1 1.1-.3 1.7 1.3.1 1.6-.1 1.7-1.4 0-.4.6-9.8 1-11.3.2-1.2.4-3.6 0-3.7-1.9-.6-3.5-1.5-4.8-2.6-.3-.3-.9-.8-1.1-1.2-1.1-1.4-2.1-2.6-2.5-4.5-.4-1.7.1-5 .2-5.9.1-2.7-1.2-4.8-2.2-6.5-.5-.7-1.8-2.6-4.7-3.4-.7-.3-2.5-.7-5-.6-1.9.1-3.8.4-5.6 1.4-.5.3-1.1.5-1.6.8-.3-.4 0-.8.2-1 2.1-2.2 5.9-2.8 7.8-2.8 4.3-.3 7.9 2.1 8.6 2.9.1.1.2.1.4.3.3-.2.6-.5.9-.8.8-.7 2-1.2 3-1.6 5.2-1.6 7.7-.9 9.9-.3 3.2 1.6 5.2 3 8 3.8.8.4 1.5.6 2.4.4.2 0 .5.1.5.3 0 .3 0 .5-.4.7-.8.4-1.6.4-2.4.4-1.6.1-3.2-.3-4.8-.9-.1 0-1.8-.4-3.7-.9-.7-.1-1.6.4-1.9.6-.6.5-2 1.1-2.8 1.2-1.1.3-2.5.9-5.5.1-.4-.1-.7-.2-1.3-.3.3.9.6 1.5.9 2.2.7 1.6.8 2.5.7 4-.1 1.2-.1.6-.2 1.7-.4 3.3.2 4.8 1 6.2.7 1 1.4 2.1 2.3 2.9 1.3 1.1 2.6 1.6 3.5 1.9 1.4.5 1.7.8 1.7 2.3-.7 3.9-1.7 12.1-1.6 13-.3 2.6.3 3.2-1 3.7-.7 0-1.5-.1-2.2-.5m-10.3-17.4c-.5-.2-1.3-.6-1.9-.7-.4 1.5-2.6 12-3 13.5-.2.7-.7 3.2-.8 3.7 1 .2 1.7.1 1.9-.4.5-1.2.7-2.1 1-3.5.7-2.7 2-10 2.8-12.6M65 54.6c2.4 1.9 4.6 1.6 5.7 1.5.4-.1.6-.3.7-.1.2.3.1.6-.1.9-.5.8-2.8 5.3-4.6 10.4-.5 1.6-1.6 5-.1 8.5.4 1.3.6 1.1 1.1 2.4.2.4.4.9.6 1.3.1.2 0 .5-.1.6-.4.7-.8 1.4-1.2 2.2-.8 1.6-3.7 5.5-4.3 6.9-.2.3-.5 1.9-.5 2.3.2 1.6.1 9.1.6 9.1.7 0 .9-.4.8-1 0-3 .2-5.8.3-7.7.1-.6.3-1.9.5-2.2 1.9-2.7 4.1-5.3 4.4-5.8.6-.7 2-2.7 2.5-3.4.3-.4.8-.9 1.2-.7.4.2.6.8.4 1.2-.2.4-2.6 3.6-3.2 4.4-1 1.6-2.6 3.3-3.2 4.2-.3.5-.9 2-.9 2.6 0 2-.3 7.6-.3 8.1 0 1.1-.5 1.6-1.5 1.9-.5.1-1 .2-1.6 0-1-.3-1.2-1.2-1.4-2-.2-2.5-.2-5.2-.3-7.9-.2-1.3-.1-2.6.7-3.8.5-.8.7-1.2 1.2-2.1 1.1-1.6 1.7-2.4 2-3-.5 0-.9.1-1.3.1-1.2.1-2.3.2-3.5.3-.7 0-1.3.1-2 .1s-.7.2-1 .7c-.2.3-.9 1.4-1.1 2.3-.2.9-1.1 5.6-1.4 7-.1.6-.4.9-1.1 1.2-.4.1-.8.2-1.1.3-1.2.3-1.8-.3-1.5-1.5.3-1.4.6-2.9.9-4.3.4-1.8.8-3.6 1.1-5.4.1-.4.6-2.4.6-2.8 0-.6.3-1 .8-1.2 1.1-.4 2.1-.9 3.2-1.3s2.2-.8 3.4-1.2c1.1-.4 2.3-.7 3.4-1 .5-.1.9-.3 1.5-.5-3.7-6 4.5-18.7 4.8-19-1.6.1-2.9.3-5.2-1.3-.1-.1-1.8.3-4.3.2-1.2 0-2.8-.6-3.3-1.3-.6-1-1-2-.5-3.7.2-1.2 4.8-3 5.6-3.4 1.5-2.4 2.7-3.3 4.9-4.1 1.9-.7 3.9-.6 5.8 0 .2.1.8.4.6.6-.2.5-1 .1-1.4 0-.9-.3-1.8-.2-2.7-.1-.6.1-4.6 1.1-6.4 4.3-.3.5-5 1.8-5.3 3-.3.5-.2 1.7.1 2.2.1.5 1 1.1 1.5 1.2 1.3.1 4.1.2 5.5-.2M52.7 93.4c.5-.8 1.1-4.8 1.3-6 .1-.9.2-1.1.3-1.4.5-1.1 1-2.1 1.5-3.1.3-.5.7-.7 1.2-.7 2-.1 5.8-.5 7.8-.7.8 0 2.1-1.8 2.2-1.9 0-.2.1-.7 0-.8-.4-.7-.9-1.3-1.3-1.9-1 .3-2 .6-2.9.9-2.5.9-5 1.9-7.5 2.8-.8.3-1.3.8-1.5 1.7-.4 2.2-.9 4.5-1.3 6.7 0 .2-.1.4-.1.6-.3 1.3-.5 2.6-.8 4 .4 0 .7-.1 1.1-.2m32-33.5c0-.2.1-.6.1-.7-1.1-.8-.7-3.4-1.4-3.8-.1-.1-.2-.3-.2-.5-.1-.3-.5-.6-.2-.8-.2-.7-.6-1.3-.6-2-.2-1.5-.1-3.2-.3-4.8-.2-1.6-.5-3-.8-4.6-.2-1-1.5-4.2-2.1-3.7-.5.5 1.1 2.4 1.5 5.2.2 1.3.5 2.7.4 4.2-.7-1.1-1-1.3-1.9-1.4-.4 0-.6.1-.7.4-.1.2-.1.4-.2.6.2.2.4.3.5.4-.2.3-.3.6-.4.9.1.1.2.3.3.3.6.4.9 1.1.9 1.8-.1.9.7 1.6.5 2.6 0 .2.2.4.3.6.1.2.2.3.2.5.1 1 1 3.8 1.7 5.1.2.3.5.5.9.4 1.4-.1 1.5-.7 1.5-.7"/><path class="st0" d="M85.8 59.8c.3-.1.7-.1 1-.1 1.6-.2 3.2.2 4.7.4.7.2 2 .4 2.6.5h.1c.5.2.5.4.3.7 0 .3-.7.3-1.2.2-.9-.2-4.4-1.2-7.7-.7-.3.1.2-1 .2-1M73 42.7c-.6 0-.9-.4-1.2-2-.2.2-.7 1.5-.9 1.9-.3.2-.8-.3-.3-1.4.2-.4.3-.7.5-1.1.4-.6.9-.6 1.4-.1.2.3.4.6.5 1 .4.9.4 1.7 0 1.7m3.9 2.6c-.4 0-.5-.4-.3-.5.6-.4 1.1-.8 1.7-1.1.7-.3 1.2-.1 1.2.7 0 .7-.1 1.7-.5 1.9-.6-.3-.5-.8-.7-1.6-.4.2-.9.6-1.4.6m-6.7 3.8c.4.2.5.6.5 1.2-.1.5-.4.7-1.1.7-.6 0-1-.6-.8-1.2.2-.7.7-1 1.4-.7M55.8 32.3c.3.2-2.1 2.2-2.2 1.9-.3-.2 2-2.1 2.2-1.9m22.9 7.6c-1-.9-1.9-1.5-3.2-2-.5-.2-1.9-1-4.1-1.7-.1 0-.4-.3-.4-.3-1-.6-2-1-3-1.4-1.9-.9-3-1.4-5-1.8-1.1-.3-3.1-3.2-3.4-2.7-.1.5 1 1.9.9 2-.4-.1-3.8-.8-3.9-.7-.2.3.4.8.9.9.7.3 1.9.6 2.2.7 1.3.4 2.5.8 3.7 1.2 1.1.3 2.7.7 3.2 1 2.7 1.4 5 2.5 7.9 3.6.8.3 1.7.6 2.5 1 .7.4 1.3 1 1.4 1 .3-.2.5-.6.3-.8m-2.6 4.8c-.7.3-.9-.2-1.1-.2-.4 0-.7.2-.8 0-.1-.4.1-1.2.4-1.1.8.1 2 1.2 1.5 1.3m-23.6-9.6c-.3.3-1.5 1.3-1.5 1.3-.3.2-.5.5-.7.7-1.3 1.3-2 2.9-2.3 4.6-.3 1.4-1.1 2.5-2.3 3.2 0 0-.4 1.1 1.2.1.1-.2.4-.3.5-.5.6-.8 1.2-1.7 1.3-2.6.1-1.1.7-2.6 1.3-3.5.8-1.1 2.7-2.9 2.9-3.2.2-.3.1-.5-.4-.1"/><path class="st1" d="M49.2 46.7c-.1-.6-.2-1.3-1.1-1.4-.3 0-1.1-2-2.7-1-.2.1-.4.3-.4.4-.6 1.1-1.3 2-2.1 3-.7.9-1.2 2.1-1.8 3.1-.2.3-.2.7-.4 1-.6 1.5-.6 3 .1 4.5.1.3.1.6.2.9.2.8.5 1.5 1.2 2.1.9.8 1.5 1.8 1.8 2.9.1.5.3.9.6 1.3.3.5 1.1.4 1.1-.1 0-1.1.8-1.7 1.3-2.6.6-1 1.4-2 2-3 .3-.5.3-1.7.4-2.2.2-1 .6-1.3.7-2.3.1-2.2-.4-4.4-.9-6.6m-6.6 11.5c-.1-.1-.2-.3-.2-.5 0-.3.2-1 .5-.9.3.8.6 1.5.9 2.4-.5-.1-.8-.6-1.2-1M48 55c0 .6-.3.7-.8.5-.2 0 .4-2.8.7-4.1.1-.2.3-.2.3 0-.1 1.2-.1 2.4-.2 3.6"/></svg>