<svg version="1.1" id="レイヤー_1" xmlns="http://www.w3.org/2000/svg" x="0" y="0" viewBox="0 0 296 151.1" style="enable-background:new 0 0 296 151.1" xml:space="preserve"><style>.st0{fill:#6a3906}.st1{fill:#a40b5e}</style><path class="st0" d="M78.7 8c-.3.3-.9.7-1.8 1.4-.1.1-.3.2-.6.5-.1 2.1-.3 3.8-.7 5.1.7.2 1.3.4 1.9.7.7.4 1.1.8 1.4 1.3.1.3.2.6.2 1 0 .3-.1.6-.3.8-.2.2-.4.4-.7.4-.6.1-1-.2-1.3-.9-.2-.4-.3-.9-.6-1.3-.2-.5-.5-.9-.8-1.2-.5 1.6-1.3 3-2.2 4.1-.9 1.1-2.1 2.1-3.4 2.9-.4.2-.6.3-.7.3-.1 0-.2-.1-.2-.2s.2-.3.6-.7c1.1-1 1.9-2.1 2.5-3.1.8-1.5 1.4-3.4 1.8-5.8.2-1.6.3-3.6.3-5.9 0-1.3-.1-3.5-.3-6.6.5.2 1.3.4 2.4.8.7.3 1.1.6 1.1.9 0 .2-.1.3-.3.5l-.5.5c0 2.6 0 4.4-.1 5.4.2-.4.5-1.1.8-2 .1-.4.3-1 .5-1.7.3.4.8.8 1.5 1.4.4.4.6.8.6 1-.1.2-.4.3-1.1.4m-5.9 3.7c-.3.4-.7.6-1.1.5-.7-.1-1-.7-.9-1.8.1-.6 0-1.1 0-1.6s-.1-1-.2-1.4c0-.1-.1-.3-.2-.7-.1-.3-.2-.4-.2-.5 0-.1.1-.2.2-.2s.3.2.8.5c.7.6 1.3 1.1 1.6 1.8.4.7.5 1.5.4 2.3-.1.4-.2.8-.4 1.1m20.1 11c-1 .4-2.3.7-4 .7-1.3 0-2.2 0-2.6-.1-.6-.1-1-.3-1.2-.7-.1-.1-.1-.6-.1-1.3 0-.4.1-.9.1-1.3 0-.7 0-1.9.1-3.6v-1.9c-1.3.1-2.5.1-3.7.2.7.3 1.3.6 1.7.8.6.3.9.6.9.7 0 .2-.3.4-.8.6-.5 1.4-1.2 2.6-2 3.5-1 1.1-2.2 2-3.6 2.7-.5.3-1 .5-1.5.6-.4.1-.6.1-.7 0-.1-.1.1-.3.5-.6.2-.2.6-.3.9-.6 1-.7 1.9-1.6 2.7-2.7.5-.7.9-1.7 1.3-2.9.2-.6.3-1.4.5-2.4-.4.1-1.1.1-2 .3l-.5-1h2l-.2-3.5c-1.1.1-2.1.2-2.9.3l-.5-1.1c1.1 0 2.3 0 3.4-.1l-.1-1.2c-.1-.7-.1-1.5-.3-2.5.4.1 1 .3 1.8.6.4.1.7.2.8.3.1.3.2.5.2.6 0 .2-.2.4-.6.8 0 .4.1.9.1 1.5 1-.1 2.2-.1 3.8-.2l.1-1.3c.1-.7.1-1.6.1-2.7.3.2.9.4 1.7.8.5.3.8.4.8.5.3.2.4.3.4.5 0 .3-.2.5-.7.7L88.7 9h.7l1.1-2c.4.3 1 .8 1.7 1.4.5.5.8.8.8 1 0 .2-.3.3-.9.3-.6 0-1.5 0-2.6.1-.2 0-.5 0-.8.1-.1.8-.2 2-.3 3.6h.2l1-1.7c.4.3.9.8 1.6 1.4.4.3.6.6.5.8 0 .2-.3.3-.9.3-.8 0-1.6 0-2.2.1-.6 0-1.4.1-2.4.1 1.3.4 1.9.8 1.9 1.1 0 .2-.3.5-.7.7v4.6c.1.2.6.3 1.3.3.6 0 1.1-.1 1.5-.2.2-.1.5-.3.7-.5.2-.2.3-.4.5-.8.3-.7.6-1.4.9-2.2.2-.4.4-1.1.7-1.9.1-.3.3-.5.4-.5.1.1.1.2.1.6 0 .2-.1.8-.3 2-.1.8-.2 1.5-.2 2s.1 1 .3 1.3c.2.1.3.4.5.8-.1.3-.4.6-.9.9M89.8 4.4h-2c-.7 0-1.3.1-2 .1.1 1.5.1 2.2.1 2.3 0 .1 0 .4-.1.5-.1.3-.4.5-.9.8-.5.3-.9.4-1.1.3-.1-.1-.2-.2-.2-.6v-.7c0-1 .1-1.9.1-2.5-.8.1-2.1.2-3.8.3l-.4-1h2.1c.5 0 1.2-.1 2.2-.1V2.2c0-.4-.1-1-.1-1.9.5.1 1.1.3 2 .6.1.1.3.2.4.2.2.1.3.2.3.4s-.2.4-.7.7v1.6c.7 0 1.3-.1 1.8-.1l1-1.7c.6.5 1.2.9 1.6 1.3.4.4.7.7.7.8 0 .2-.4.3-1 .3m-7.1 5.8.2 3.6 3.2-.2c.1-1.3.2-2.6.3-3.6-.8 0-2 .1-3.7.2m32.7.7c-.5.1-1.1.2-1.6.4.4.8.9 1.7 1.3 2.5.6 1.3.9 2.1.9 2.5 0 .4-.2.8-.5 1.2-.3.4-.7.6-1.1.6-.2 0-.4-.1-.7-.3l-.7-.5c-1.4-.9-2.9-1.3-4.2-1.3-.9 0-1.6.1-2.3.4-.9.4-1.4.9-1.4 1.6 0 1.1 1.3 1.6 3.9 1.6.3 0 .7-.1 1.3-.1.6-.1 1-.1 1.3-.1.5 0 1 .1 1.3.4.3.3.5.7.5 1.2 0 .6-.2 1-.7 1.2-.5.2-1.2.3-2.2.3-1.6 0-3-.2-4.3-.7-1.8-.6-2.6-1.6-2.6-3 0-1.3.8-2.2 2.3-2.9 1-.4 2.7-.6 5.2-.6h.8c.3 0 .6.1.7.1.4 0 .6-.2.6-.6 0-.6-.4-1.6-1.2-3.2-.1 0-.9.2-2.5.5-2.3.4-3.5.6-3.7.6-.2 0-.4 0-.6-.1-.4-.1-.6-.3-.9-.7-.2-.4-.4-.7-.4-1.1 0-.6 1-1.6 2.9-3.1-1.1-.1-1.8-.3-2.4-.5-.6-.2-1.1-.6-1.6-1.1-.4-.4-.6-.8-.6-1.1 0-.1.1-.2.2-.2s.2.1.5.2c.2.1.4.2.6.4.7.3 1.4.5 2.1.5 1 0 1.8-.2 2.5-.6-.7-1.2-1.5-1.9-2.2-2.1-.2 0-.4-.1-.6-.1-.3-.1-.5-.2-.5-.3 0-.2.2-.5.8-.8.4-.2.9-.3 1.5-.3.5 0 .9.1 1.3.3.2.1.4.2.5.4.1.1.2.4.4 1s.3 1.1.4 1.2c.6-.1 1-.1 1.2-.1 1.1 0 1.6.3 1.6 1.1 0 .3-.5.8-1.5 1.3.4.5.9 1.3 1.6 2.4 1.2-.4 1.9-.6 2.1-.6.4 0 .8.1 1.1.4.3.3.5.6.5 1 .1.2-.2.6-.9.8m-5.7-3.7c-.8.3-1.6.6-2.3 1.1-1.1.6-1.7 1.2-1.7 1.7s.4.7 1.3.7c.5 0 1.3-.1 2.2-.3.9-.2 1.6-.4 2.1-.6-.6-1.2-1.2-2-1.6-2.6m35.6 8c-.4.4-.8.6-1.4.6-.6 0-1-.3-1.2-.9 0-.4-.1-1.1-.1-1.9-.2-1.4-.4-2.4-.6-3-.4-1.3-1.1-1.9-2.1-1.9-1.2 0-2.5 1.2-3.8 3.6-.8 1.4-1.3 2.7-1.8 4.1-.1.5-.2.9-.2 1.2 0 .3.1.6.4.9.2.3.3.6.3.7 0 .4-.2.7-.5.9-.3.3-.7.4-1 .4-.7 0-1.4-.2-2.1-.7-2.2-1.6-3.3-4.4-3.3-8.5 0-.4 0-1 .1-1.8V7c0-.6-.1-1.1-.3-1.5-.1-.1-.2-.3-.3-.5-.1-.2-.2-.3-.2-.4 0-.2.2-.3.5-.3.5 0 1 .2 1.6.7 1.3 1.1 2 1.9 2 2.4 0 .1-.2.4-.5 1.1-.4.8-.6 2-.6 3.6 0 .6.1 1.1.1 1.7.1.5.3 1 .6 1.5.4.7.7 1 1.1 1 .2 0 .5-.2.8-.7.7-1.2 1.4-2.4 2.1-3.7.8-1.4 1.7-2.5 2.7-3.3.9-.8 1.7-1.2 2.6-1.2 1.4 0 2.6.5 3.5 1.4 1 1 1.6 2.2 1.9 3.7.1.4.1.8.1 1.2.1.6-.1 1.1-.4 1.5m21.3 6.1c-.7.8-1.7 1.2-3 1.2-2.4 0-3.8-1.4-4.3-4.1-.1-.7-.2-1.6-.2-2.6-1.1-.4-2-.9-2.5-1.3-.7-.6-1.1-1.4-1.1-2.4 0-.5.2-1.2.7-2 .3-.6.7-1.3 1.1-1.9.2-.4.3-.8.3-1 0-.4-.3-.8-.9-1.2-.4-.3-.9-.5-1.4-.7-.4-.1-.6-.2-.6-.3 0-.2.2-.3.7-.4.4-.1.6-.1.9-.1.9 0 1.8.2 2.6.7 1 .6 1.5 1.2 1.5 2.1 0 .4-.2.6-.5.7-.4.1-.7.2-1 .3-.4.2-.8.6-1.2 1.2-.4.5-.7 1-.9 1.4-.2.4-.3.7-.3 1 0 .5.5.9 1.5 1.2.5.2 1.1.3 1.6.3.3-1.5.6-3.1.9-4.6.4-2 .6-3.5.6-4.5 0-.6-.1-1.2-.4-1.9-.2-.6-.4-.9-.4-.9 0-.2.1-.3.3-.3.2 0 .6.3 1.2.9.4.4.8.8 1.1 1.2.4.6.7 1.1.7 1.6s-.1 1.1-.3 1.6c-.2.5-.4 1-.6 1.6-.9 2.4-1.4 4.2-1.7 5.6.6.2.9.4 1.1.6.4.3.6.6.6 1 0 .6-.5.9-1.5.9-.2 0-.4 0-.5-.1 0 1.1.1 2 .4 2.5.4.7 1 1.1 1.9 1.1 1.5 0 2.3-.8 2.3-2.5 0-1.6-.5-3.3-1.6-5.1-.2-.3-.6-.8-1.1-1.5-.2-.2-.2-.4-.2-.4 0-.1.1-.1.2-.1s.2.1.4.1c.3.2.7.6 1.3 1.2 2.2 2.2 3.3 4.5 3.3 6.8 0 1.3-.3 2.3-1 3.1m34.1.1c-.6.2-1.1.7-1.5 1.3-.2.3-.4.6-.7.9-.1.1-.4.1-.8 0-.5-.1-1.2-.4-2.2-.8-.8-.4-1.7-.8-2.6-1.4-.5-.3-1.1-.8-1.8-1.5-.8-.7-1.3-1.3-1.7-1.8-.2-.3-.3-.5-.2-.6.1-.1.3 0 .6.2.6.3 1.5.9 2.7 1.5 1-.7 1.8-1.4 2.6-2.3-1.7.1-4.1.2-7.3.4 0 .2 0 1.3-.1 3.2.5-.1 1.3-.2 2.4-.3.5-.1.8 0 .8.1.1.1-.2.3-.7.5-.8.3-1.9.7-3 1.1-.7.2-1.9.6-3.5 1.1-.3.2-.7.4-1.2.6-.2 0-.4-.2-.7-.6-.1-.1-.4-.7-1.2-1.9.7 0 1.7-.1 3.1-.2.4 0 .9-.1 1.5-.2l.1-3.4c-.7 0-1.5.1-2.4.2l-.4-.8c-.2 1.4-.7 2.6-1.5 3.5-1 1.2-2.4 2.4-4.3 3.4-.5.2-.8.3-.8.2v-.1c0-.1.2-.3.6-.7 1.3-1.1 2.2-2.2 2.8-3.1.4-.7.7-1.6 1-2.8.1-.5.2-1.3.2-2.4v-2.1c0-.4-.1-1.2-.1-2.3.3.1.5.2.7.2.1-.6.1-1.3.1-2.1 0-1.3 0-2.4-.1-3.4 0-.6-.1-1.5-.2-2.7.3.1.9.3 1.6.5.2.1.7.3 1.5.6l1.2-.1c0-.3 0-.7-.1-1.1-.1-.7-.1-1.4-.2-2.2.4.1 1 .2 1.9.4.8.2 1.3.4 1.3.7 0 .2-.2.5-.6.8v1.2l1.8-.1v-.8c0-.2 0-1-.1-2.1 1 .2 1.9.5 2.7.8.4.2.6.4.6.6 0 .2-.3.4-.8.7v1.2l1.7-.1 1-1.4c.4.2.9.6 1.6 1.1.6.4.9.8.9 1 0 .2-.1.3-.3.4l-.6.3V9c0 .2-.1.4-.2.6.3.2.9.6 1.6 1.1.5.4.8.7.7.9-.1.2-.4.2-1 .3-.9 0-2 .1-3.3.1-2.3.1-5.9.3-11 .6 0 .7-.1 1.8-.2 3.2 0 .3-.1.6-.1.9 1 .1 2 .1 3.1.1 2.3-.1 5.7-.3 10.2-.5.2-.3.5-.8 1.1-1.6.4.3 1.1.8 1.9 1.4.3.3.5.5.4.7 0 .2-.3.3-.8.3-.6 0-1.5 0-2.6.1h-.6l1.1 1.1c.3.4.5.6.5.8v.2c-.1.1-.4.1-1 .1-.2.1-.7.2-1.3.4-.3.1-.5.1-.8.2.8.3 1.6.5 2.7.7 1.1.2 2.5.3 4.2.4h.4c.1 0 .2.1.2.2 0-.2-.1-.1-.5.1m-6.5-10.9c-.3.1-.6.1-.7 0-.1-.1-.2-.3-.2-.7-1.8.1-5.1.2-9.9.5-.2.3-.6.7-1.2.9.1 0 .5.2 1.3.6l11-.5c.2-.4.5-.7.7-1.1-.3.1-.6.2-1 .3m-9-4.1-.1-2-1.8.1.1 2 1.8-.1zm.1 2.9-.1-2.2-1.8.1c0 1 .1 1.7.1 2.2l1.8-.1zm10.2 5.1c-.6 0-1.4.1-2.5.1-1.3.1-3.4.2-6.2.3-.8.1-1.7.1-2.5.3l-.5-1c.6 0 1.4 0 2.4-.1 1.4-.1 3.6-.2 6.5-.3.2-.3.6-.9 1.1-1.6.4.2 1 .7 1.7 1.2.5.4.8.7.7.8.2.2-.1.3-.7.3m-8.1-10.1c0 .6.1 1.2.1 2l1.7-.1v-2l-1.8.1zm1.8 2.7-1.7.1.1 2.2 1.6-.1V7zm2.4-.1V9l1.8-.1c0-.6.1-1.3.1-2.2l-1.9.2zm2-3-1.9.1v2l1.9-.1v-2zm22.9 5.8c-.7 0-1.4.1-2 .1l-.6.1V15l1.4-.7c.2-.1.6-.3 1.1-.6.4-.2.6-.3.7-.2.1.1-.1.3-.4.6-.3.2-.6.5-1 .8-1.1.9-2 1.6-2.7 2.1-1.6 1.1-2.6 1.8-3.2 2.3-.2.3-.6.7-1 1.1-.2.1-.6-.2-1-.7l-1.3-1.6c2.2-.8 3.9-1.5 5.1-2v-5.9c-.3 0-.5.1-.8.1-.8.1-1.7.2-2.5.4l-.7-1.2c1.7-.1 3-.1 3.9-.2V4.7c0-.9-.1-2.1-.1-3.6.4.2 1.2.4 2.2.8.7.3 1.1.6 1.1.9 0 .3-.3.6-.9.9V9l.4-.1 1-1.7c.1.1.6.5 1.5 1.3.4.4.6.6.6.8 0 .3-.3.4-.8.4m13.5 1.7h-3.6c-.8 0-2.8.1-6 .3.3.2.6.4.8.6.4.4.6.7.6.8 0 .1-.3.2-.9.3-.1.2-.3.4-.4.5l2.8-.2c.9-.1 2.2-.1 3.7-.2.2-.2.5-.7 1-1.3.5.3 1 .8 1.8 1.3.5.4.7.7.7 1 0 .2-.3.5-1.1.7-.1.6-.2 1.4-.4 2.4-.1.5-.3 1.3-.7 2.5-.4 1.3-1 2.3-1.7 2.9-.4.3-.7.5-1.1.7-.5.2-.8.2-1.1.1-.1-.1-.2-.3-.2-.6 0-.4-.1-.7-.1-.8-.2-.4-.4-.7-.6-1-.3-.5-.5-.7-.4-.8 0-.1.3-.1.8.1.7.1 1.2.1 1.5-.1.3-.2.8-1.1 1.2-2.8.3-1 .5-2.1.7-3.4l-2.6.2c.3.3.8.7 1.4 1.2.4.4.6.7.6.9-.1.2-.4.4-1 .4-.4.7-1 1.6-1.9 2.7-1 1.2-2.3 2.3-3.7 3.1-.8.5-1.4.8-2 1-.2.1-.4.1-.4.1-.1-.1 0-.2.2-.4.3-.3.8-.6 1.4-1.2 1.6-1.5 2.8-3.2 3.8-5.1.3-.5.6-1.4 1.1-2.6l-3.3.2c.3.3.7.7 1.3 1.2.4.4.5.7.4.9-.1.1-.4.2-1 .3-.8.9-1.5 1.6-2.2 2.1-.6.4-1.5 1-2.6 1.7-1.2.7-2.4 1.2-3.4 1.4-.3.1-.4.1-.5 0-.1-.1.1-.2.3-.4.7-.4 1.7-1.1 3-2.1 1.2-.9 1.9-1.7 2.4-2.4.7-.8 1.3-1.8 1.9-2.7l-1 .1c-.7.6-1.6 1.3-2.8 1.9-.6.3-1.1.6-1.5.7-.3.1-.5.2-.6.1-.1-.1.1-.2.3-.4 1-.8 1.8-1.6 2.5-2.3.4-.5.8-1 1.2-1.6.3-.4.5-.9.8-1.5-1.3.1-2.6.2-3.8.3l-.5-1.1h3.3l8.5-.4 1.4-2.1c.5.4 1.2.9 2.1 1.7.5.4.7.7.7 1 0 0-.4.1-1.1.1m-3.4-7.7v2.4c0 .6-.1 1.4-.1 2.6 0 .4-.3.8-.8 1.2-.5.3-.9.4-1.3.3-.2-.1-.3-.3-.3-.8v-.8l-4.2.2c-.1.4-.4.8-.9 1.1-.5.3-.9.4-1.1.3-.1-.1-.2-.3-.2-.8v-1c0-1.1-.1-2.8-.1-4.9 0-.4-.1-1.3-.3-2.4.3.1 1 .3 1.8.6.1 0 .5.2 1.4.6 1.7-.1 3-.2 3.7-.2.1-.2.4-.6.9-1.3 1.1.7 1.8 1.2 2.1 1.6.1.2.2.3.2.5s-.3.5-.8.8m-6.8-.4c0 .4.1 1.1.1 2 .5 0 .9-.1 1.2-.1.5 0 1.2-.1 2.1-.3.3.4.5.7.4.8 0 .1-.3.2-.8.2-.2 0-.8 0-1.6.1l-1.4.1v2l4.3-.2c.1-2.2.1-3.9.1-4.9-.9 0-2.4.1-4.4.3M45.1 148.2v-.6c1 0 1.4-.2 1.4-.6v-2.7l-2.3-3.9c-.5-.8-1-1.1-1.6-1.1v-.6h4.8v.6c-.7 0-1 .1-1 .4 0 .1.1.3.2.5l1.9 3.1 1.8-3.1c0-.1.1-.3.1-.6 0-.2-.4-.3-1.1-.3v-.6h3.5v.6c-.5 0-.9.2-1.1.5l-2.6 4.5v2.8c0 .3.5.5 1.4.5v.6h-5.4z"/><path class="st0" d="M57.8 147.5c-.1.3-.3.5-.6.7-.3.1-.6.2-.9.2-.3 0-.5-.1-.8-.2-.3-.1-.4-.3-.5-.6l-.9.6c-.3.1-.6.2-.9.2-.5 0-.9-.1-1.3-.4-.3-.2-.5-.6-.5-1s.1-.7.2-.9c.1-.3.4-.5.6-.7.3-.2.6-.4 1.1-.5.4-.1.9-.3 1.5-.4v-.5c0-.4 0-.8-.1-1-.1-.2-.3-.3-.6-.3s-.6 0-.8.1c-.2.1-.3.3-.3.5 0 .1.1.1.1.2v.2c0 .4-.3.6-.8.6-.4 0-.6-.2-.6-.7 0-.2.1-.4.2-.7.1-.2.3-.4.5-.5.2-.2.5-.3.8-.4.3-.1.7-.1 1.2-.1.3 0 .6 0 .9.1.3.1.5.2.7.3.2.2.4.4.5.6.1.2.2.5.2.9v3c0 .3.1.4.4.4.1 0 .1 0 .2-.1.1 0 .1-.1.2-.1l.3.5zm-2.9-2.3c-.5.1-1 .2-1.2.4-.3.2-.4.6-.4 1 0 .3 0 .5.1.7.1.2.3.2.5.2s.4 0 .6-.1l.3-.3c.1-.1.1-.3.1-.4v-1.5zm7.2 3v-.6c.3 0 .4 0 .5-.1l-1.1-2.1c-.1.1-.2.1-.3.2-.1.1-.2.1-.4.2v1.3c0 .4.2.5.6.5v.6H58v-.6c.6 0 .9-.2.9-.6v-7c0-.4-.3-.6-1-.6v-.6l2.8-.4v6.4c.2-.1.4-.3.6-.4.2-.2.4-.3.6-.5l.5-.5c.1-.2.2-.3.2-.4 0-.1-.3-.2-.8-.2v-.6h3.3v.6c-.4 0-.9.1-1.5.4-.1.1-.2.3-.4.4l-.5.5 1.6 2.8c.3.4.6.6.9.6h.4v.6h-3.5zm4 0v-.6c.6 0 .9-.3.9-.8V144c0-.7-.3-1-.8-1v-.5l2.8-.5v4.8c0 .5.4.7 1.1.7v.6h-4zm1.8-7.5c-.3 0-.5-.1-.6-.2-.1-.1-.2-.4-.2-.7 0-.6.3-.9.9-.9.6 0 .8.3.8.9 0 .3-.1.6-.2.7-.2.1-.4.2-.7.2m2.5 7.5v-.6c.6 0 .9-.3.9-.8V144c0-.7-.3-1-.8-1v-.5l2.7-.5v4.8c0 .5.4.7 1.1.7v.6h-3.9zm1.8-7.5c-.3 0-.5-.1-.6-.2-.1-.1-.2-.4-.2-.7 0-.6.3-.9.9-.9.6 0 .8.3.8.9 0 .3-.1.6-.2.7-.2.1-.4.2-.7.2m10.8 7.5v-.6c.3 0 .5 0 .6-.2.1-.1.2-.2.2-.5v-2.5c0-.5-.1-.9-.2-1.1-.2-.2-.4-.4-.8-.4-.3 0-.5.1-.7.3-.2.2-.3.5-.5.8v2.7c0 .3.1.5.2.6.1.1.3.2.6.2v.6h-3.5v-.6c.3 0 .5-.1.6-.2.1-.1.2-.4.2-.6v-1.9c0-.6-.1-1.1-.2-1.4-.2-.3-.4-.5-.8-.5s-.7.1-.9.4c-.2.3-.3.7-.3 1.2v2.3c0 .4.3.6.8.6v.6h-3.5v-.6c.5 0 .8-.2.8-.6v-3.5c0-.2-.3-.3-.9-.3v-.5l2.7-.5c.1.1.1.2.1.4v.5c.2-.3.5-.5.8-.6.3-.2.7-.2 1.1-.2.4 0 .7.1 1 .2.3.2.6.4.8.8.3-.3.6-.6.9-.8.4-.2.8-.3 1.2-.3.3 0 .6 0 .9.1.3.1.6.2.8.3.2.2.4.4.5.6.1.3.2.6.2 1v2.8c0 .4.3.6.9.6v.6H83zm10.6-3c0 .6-.1 1.1-.3 1.5-.2.4-.4.7-.8 1-.3.3-.7.5-1 .6-.4.1-.8.2-1.2.2-.5 0-.9-.1-1.3-.2s-.7-.3-1-.6c-.3-.3-.5-.6-.7-1-.2-.4-.3-.8-.3-1.3 0-.6.1-1.1.3-1.5.2-.4.4-.8.8-1 .3-.3.7-.4 1.1-.6.4-.1.8-.2 1.2-.2.4 0 .8.1 1.2.2.4.1.7.3 1 .6.3.3.5.6.7 1 .2.3.3.8.3 1.3m-3.2 2.6c.3 0 .5-.1.7-.2.2-.2.3-.3.4-.5.1-.2.1-.4.1-.7v-1.6c0-.4-.1-.7-.1-1-.1-.3-.2-.6-.4-.8-.2-.2-.4-.3-.7-.3-.3 0-.5.1-.7.2-.2.2-.3.3-.4.6-.1.2-.1.4-.1.7v1.6c0 .4.1.7.1 1 .1.3.2.6.4.8.1.1.4.2.7.2m7.8.4v-.6c.8 0 1.2-.3 1.2-1v-6.1c0-.8-.4-1.1-1.3-1.1v-.6h8.1l.2 2.8-.9.1c-.1-.5-.2-.8-.4-1.1-.2-.3-.4-.5-.6-.6-.2-.1-.5-.2-.8-.3-.3 0-.7-.1-1.1-.1-.5 0-.8.2-.8.5v2.5c0 .3.2.4.7.4.2 0 .4 0 .6-.1.1 0 .3-.1.4-.2.1-.1.2-.3.2-.4 0-.2.1-.4.2-.7h.8v3.8h-.8v-.8c0-.1-.1-.3-.2-.4-.1-.1-.3-.2-.5-.3-.2-.1-.5-.1-.8-.1-.2 0-.3 0-.4.1-.1.1-.1.1-.1.2v2.6c0 .7.5 1 1.5 1v.6h-5.2zm13.9-.7c-.1.3-.3.5-.6.7-.3.1-.6.2-.9.2-.3 0-.5-.1-.8-.2-.3-.1-.4-.3-.5-.6l-.9.6c-.3.1-.6.2-.9.2-.5 0-.9-.1-1.3-.4-.3-.2-.5-.6-.5-1s.1-.7.2-.9c.1-.3.4-.5.6-.7.3-.2.6-.4 1.1-.5.4-.1.9-.3 1.5-.4v-.5c0-.4 0-.8-.1-1-.1-.2-.3-.3-.6-.3s-.6 0-.8.1c-.2.1-.3.3-.3.5 0 .1.1.1.1.2v.2c0 .4-.3.6-.8.6-.4 0-.6-.2-.6-.7 0-.2.1-.4.2-.7.1-.2.3-.4.5-.5.2-.2.5-.3.8-.4.3-.1.7-.1 1.2-.1.3 0 .6 0 .9.1.3.1.5.2.7.3.2.2.4.4.5.6.1.2.2.5.2.9v3c0 .3.1.4.4.4.1 0 .1 0 .2-.1.1 0 .1-.1.2-.1l.3.5zm-2.9-2.3c-.5.1-1 .2-1.2.4-.3.2-.4.6-.4 1 0 .3 0 .5.1.7.1.2.3.2.5.2.3 0 .4 0 .6-.1l.3-.3c.1-.1.1-.3.1-.4v-1.5zm3 3v-.6c.6 0 .9-.2.9-.7V144c0-.6-.3-.9-.9-.9v-.5l2.8-.5v1.2c.1-.1.2-.3.3-.4.1-.1.2-.3.4-.4.1-.1.3-.2.4-.3.2-.1.3-.1.5-.1.8 0 1.1.3 1.1 1 0 .6-.2.9-.7.9-.4 0-.7-.2-.7-.6v-.2h-.1c-.3 0-.5.1-.6.2-.2.2-.3.4-.4.6-.1.2-.1.5-.2.8v2.2c0 .4.4.6 1.1.6v.6h-3.9zm14.2 0v-.6c.3 0 .5 0 .6-.2.1-.1.2-.2.2-.5v-2.5c0-.5-.1-.9-.2-1.1-.2-.2-.4-.4-.8-.4-.3 0-.5.1-.7.3-.2.2-.3.5-.5.8v2.7c0 .3.1.5.2.6.1.1.3.2.6.2v.6h-3.5v-.6c.3 0 .5-.1.6-.2.1-.1.2-.4.2-.6v-1.9c0-.6-.1-1.1-.2-1.4-.2-.3-.4-.5-.8-.5s-.7.1-.9.4c-.2.3-.3.7-.3 1.2v2.3c0 .4.3.6.8.6v.6h-3.5v-.6c.5 0 .8-.2.8-.6v-3.5c0-.2-.3-.3-.9-.3v-.5l2.7-.5c.1.1.1.2.1.4v.5c.2-.3.5-.5.8-.6.3-.2.7-.2 1.1-.2.4 0 .7.1 1 .2.3.2.6.4.8.8.3-.3.6-.6.9-.8.4-.2.8-.3 1.2-.3.3 0 .6 0 .9.1.3.1.6.2.8.3.2.2.4.4.5.6.1.3.2.6.2 1v2.8c0 .4.3.6.9.6v.6h-3.6zm20.5 2.5v-.9c1.4 0 2-.4 2-1.3v-4.2c-.1-.1-.3-.1-.6-.2-.2 0-.5-.1-.9-.1H145c-.5 0-1 .1-1.4.2v4.2c0 .8.6 1.3 1.9 1.3v.9h-7.4v-.9c1.4 0 2.1-.4 2.1-1.3v-9.1c0-1.1-.7-1.6-2.1-1.6v-.7h7.4v.9c-1.2 0-1.9.5-1.9 1.6v3.4c.2.1.4.1.6.1h3.2c.7 0 1.2-.1 1.4-.2v-3.4c0-1.1-.7-1.6-2-1.6v-.8h7.3v.9c-1.3 0-1.9.5-1.9 1.6v9.1c0 .8.6 1.3 1.9 1.3v.9h-7.2zm16.2 0v-.9c.2 0 .4-.1.6-.1.2 0 .4-.1.6-.1.2 0 .3-.1.4-.1.1 0 .2-.1.2-.2s0-.1-.1-.2c0-.1-.1-.2-.1-.3l-.9-2.5c-.1-.2-.2-.3-.4-.3-.2-.1-.5-.1-.7-.1h-3c-.4 0-.7.1-.8.4l-.7 2.1c0 .1 0 .1-.1.2v.3c0 .5.6.8 1.8.8v1H155v-1c.8-.1 1.4-.5 1.7-1.4l4.9-11.8 1.9.3 4.8 12.2c.1.2.1.3.3.4.1.1.3.2.4.2.2.1.3.1.5.1s.3.1.5.1v.9h-6.9zm-1.7-10.7-1.6 4c-.2.3-.2.5-.2.6 0 .1.2.2.6.2h2.6c.3 0 .5 0 .5-.1s-.1-.4-.4-1.1l-1.5-3.6zm10.5 10.7v-.9c1.4 0 2.2-.6 2.2-1.7v-9.4c0-.4-.3-.6-.9-.6-.4 0-.8.1-1.1.2-.3.1-.6.4-.8.7-.2.3-.4.7-.6 1.1-.2.4-.3.9-.4 1.5l-1.3-.2.6-4.6c.4.1.8.1 1.2.1h10.3c.4 0 .8-.1 1.2-.1v4.6l-1.2.1c-.1-1.1-.3-1.9-.7-2.5-.4-.5-1.1-.8-2.1-.8-.6 0-.9.2-.9.5v9.4c0 1.2.7 1.7 2.2 1.7v.9h-7.7zm17.4 0v-.9c.2 0 .4-.1.6-.1.2 0 .4-.1.6-.1.2 0 .3-.1.4-.1.1 0 .2-.1.2-.2s0-.1-.1-.2c0-.1-.1-.2-.1-.3l-.9-2.5c-.1-.2-.2-.3-.4-.3-.2-.1-.5-.1-.7-.1h-3c-.4 0-.7.1-.8.4l-.7 2.1c0 .1 0 .1-.1.2v.3c0 .5.6.8 1.8.8v1h-4.8v-1c.8-.1 1.4-.5 1.7-1.4l4.9-11.8 1.9.3 4.8 12.2c.1.2.1.3.3.4.1.1.3.2.4.2.2.1.3.1.5.1s.3.1.5.1v.9h-7zm-1.7-10.7-1.6 4c-.2.3-.2.5-.2.6 0 .1.2.2.6.2h2.6c.3 0 .5 0 .5-.1s-.1-.4-.4-1.1l-1.5-3.6z"/><path class="st0" d="M210.8 148.7c0 .2-.1.4-.2.7-.1.3-.3.5-.6.7-.2.2-.5.4-.9.6-.3.2-.7.2-1.1.2-.9 0-1.5-.1-1.9-.4-.4-.3-.7-.6-.8-1-.3-.8-.5-1.6-.8-2.2-.2-.7-.5-1.2-.7-1.7-.2-.5-.5-.8-.8-1.1-.3-.3-.7-.4-1.2-.4-.3 0-.4 0-.5.1v4.4c0 .8.6 1.2 1.9 1.2v.9H196v-.9c1.2 0 1.8-.4 1.8-1.2V139c0-.8-.6-1.2-1.9-1.2v-.8h8.4c.7 0 1.3.1 1.9.3.5.2.9.4 1.3.7.3.3.6.7.7 1.1.1.4.2.9.2 1.4 0 .9-.4 1.7-1.1 2.3-.7.6-1.7 1-2.9 1.1.5.1.9.2 1.3.2.4.1.7.2.9.4.2.2.5.4.6.6.2.2.3.5.5.8.2.4.3.9.5 1.3l.3 1.2c.1.3.2.6.4.8.1.2.4.3.6.3.3 0 .5-.3.7-1l.6.2zm-8.6-5.6c.4 0 .7 0 1-.1.3 0 .6-.2.8-.3.2-.2.4-.4.5-.8.1-.3.2-.8.2-1.4 0-.5-.1-.9-.2-1.2-.1-.3-.3-.6-.5-.8-.2-.2-.4-.3-.7-.4-.3-.1-.6-.1-.9-.1h-.4c-.4 0-.6.3-.6 1v3.9c0 .1.2.2.3.2h.5z"/><path class="st0" d="M218.2 150.7v-.9c.2 0 .4-.1.6-.1.2 0 .4-.1.6-.1.2 0 .3-.1.4-.1.1 0 .2-.1.2-.2s0-.1-.1-.2c0-.1-.1-.2-.1-.3l-.9-2.5c-.1-.2-.2-.3-.4-.3-.2-.1-.5-.1-.7-.1h-3c-.4 0-.7.1-.8.4l-.7 2.1c0 .1 0 .1-.1.2v.3c0 .5.6.8 1.8.8v1h-4.8v-1c.8-.1 1.4-.5 1.7-1.4l4.9-11.8 1.9.3 4.8 12.2c.1.2.1.3.3.4.1.1.3.2.4.2.2.1.3.1.5.1s.3.1.5.1v.9h-7zm-1.7-10.7-1.6 4c-.2.3-.2.5-.2.6 0 .1.2.2.6.2h2.6c.3 0 .5 0 .5-.1s-.1-.4-.4-1.1l-1.5-3.6zm18.1 10.7v-.9c.8 0 1.2-.1 1.2-.2s0-.2-.1-.4-.2-.4-.4-.7l-2.8-4.2-.8.7c-.2.2-.3.3-.4.5-.1.2-.2.3-.2.6v2.5c0 .4.1.7.4.9.3.2.8.3 1.4.3v.9h-7.1v-.9c1.2 0 1.9-.4 1.9-1.3v-9.4c0-.9-.7-1.3-2-1.3v-.8h7.2v.9c-1.2 0-1.8.4-1.8 1.3v4.7l4.5-4.3c.3-.3.5-.5.6-.7.1-.2.2-.4.2-.6 0-.3-.5-.4-1.4-.4v-.9h5.7v.9c-.4 0-.7.1-1 .2-.3.1-.5.2-.8.3-.2.1-.5.3-.8.6-.3.2-.6.6-1 .9l-2.3 2.2 4.5 6.4c.3.4.6.7 1 1 .4.2.9.4 1.5.4v.9h-7.2zm19.1-11.2c0-1.1-.7-1.6-2.1-1.6v-.9h5v.9c-1.1 0-1.7.5-1.7 1.6v6.2c0 .8-.1 1.5-.2 2.2-.2.7-.4 1.2-.8 1.7s-1 .8-1.7 1.1c-.7.3-1.6.4-2.7.4-.8 0-1.6-.1-2.3-.3-.7-.2-1.3-.5-1.8-.9s-.9-.9-1.2-1.4c-.3-.6-.4-1.2-.4-1.8v-7.3c0-.9-.6-1.3-1.9-1.3V137h7.3v.9c-1.3 0-1.9.4-1.9 1.3v6.8c0 .4 0 .9.1 1.4.1.5.2.9.4 1.3s.5.7.9.9c.4.2.9.4 1.5.4 1.2 0 2.1-.3 2.6-1s.8-1.6.8-2.9v-6.6z"/><path class="st1" d="M167.2 92.7c-.2-8.1 1.1-16.2 2.7-24.3 1-5.5 4.1-10.1 7.2-14.6 2.1-3 4.3-5.9 6.6-8.7 1-1.2 4.1-4.3 5.7-4.2 2.7.2 3.5 1.8 4.2 5 2.2 6 2.3 10.7 3.3 16.1.8 4.1.6 8.5 1.8 12.5 1.7 5.5.2 10.8 0 16.1-.3 8.6-4.2 15.8-9.6 22.3-2.1 2.5-3.9 5.3-5.8 7.9-1.6 2.1-2.5 2.3-4.4.6-1-.9-1.8-2-2.4-3.1-1-1.8-1.8-3.7-2.7-5.5-.3-.7-.9-1.3-.9-2 0-3.2-1.5-5.6-3.4-7.8-2.7-2.9-2.9-6.4-2.3-10.3m26.8-8.2c-2.8-.7-5.1-1.4-7.5-2-.2 3.1-.4 5.8-.6 8.5-.1 1.4-.2 2.9-.6 4.3-.4 1.4-1.5 1.4-2.6.7-1.8-1.1-1.5-2.8-1.4-4.5.3-3.2.4-6.5.6-9.7-2.9-.7-5.3-1.2-8.2-1.8.1 6.3-2.3 12.2-.4 18.1 1.8 5.6 4.2 12.1 8.1 17.4 4.7-6.6 8.1-12.5 10.7-19.8 1.3-3.8 1.1-7.3 1.9-11.2m-19.6-7.6c2.5.5 4.9.9 7.7 1.4.8-3.8 1.3-7.7 2.9-11.7.3-.6 1.1-.7 1.4 0 2.2 4.4-.7 8.5 0 12.4 2.5.5 5.4 1.2 7.8 1.7.4-1 .3-2 .3-2.8 0-3.9-.5-7.8-1.5-11.7-1-3.8-.9-7.9-1.6-11.8-.5-2.6-.5-5-1.8-8.1-.1-.3-.6-.3-.8 0-1.2 1.2-2.2 2.2-3.1 3.4-1.3 1.7-2.4 3.6-3.5 5.5-4.1 6.3-7.8 13-7.8 21.7"/><path class="st0" d="M225.3 66.9c4.4 1.4 6.9 1.4 12.6 3.6 1.9.7 4.5 2.1 5.7 3.5 1.7 2.1 3.2 4.7 3.9 7.3 1.4 5.2 1.3 10.7-.4 15.6-.6 1.5-2.6 4.4-3.7 6.6-2.9 6-7.7 10.3-13.2 13.8-3.3 2.1-6.9 2.7-10.8 1.4-.9-.3-1.3-1.3-.9-2.2.5-1 1.1-1.7 2.4-2.1 3.3-1.2 5.5-4 7.6-6.7 3-4.1 6.3-8.1 8.7-12.5 2.9-5.1 3.1-10.5-.5-15.8-.9-1.4-2.9-3.8-6.5-5-3.3-.8-6.1-1.6-9.1-2.3-1.6-.4-2.7-1.4-3-2.9-.6-3.3-1.5-6.6-1.4-9.9.2-4.4-.4-8.7-.8-13.1-.3-2.6-.3-3.5.4-4.8.6-1.1 2-1.7 3.2-1.3 2.5.9 3.3 3 3.5 6.2.5 7.1.2 14.1 2.3 20.6M146 80.6c-2.6 14.8-3 28.9-4.6 43.3-.1 1.2-1.2 2.2-2.4 2.1-1.7 0-1.8-.5-1.8-2.7 0-3.4.1-6.8.2-10.2.3-9.6.2-19.3.8-28.9.4-6 1.7-12 2.8-18 1.7-8.7 3.6-17.4 5.4-26.1.3-1.5.7-3 1.8-4.2.7-.9 2-1 2.9-.2 1.3 1.1 1.8 2.7 1.7 4.4 0 2.9-.2 5.9-.8 8.7-1.3 6.2-2.9 12.3-4.3 18.5-.3 1.4-.4 3 .1 4.3 2.4 6.6 5.2 13.1 7.3 19.8 1.6 3.5 2.9 6.5 5.1 9.4 1.8 2.4 2.8 5.5 4 8.4.8 2 .3 3.4-1.2 4-1.2.5-3.8-.6-4.4-1.9-1.6-3.9-3.1-7.8-4.7-11.8-.2-.5-.3-1-.5-1.4-3-4.5-3.9-9.3-6.3-14.4-.1-.7-.8-2.3-1.1-3.1m145.9 42.5c-1.5.7-6.4-3-8.2-5.6-4.2-6-8.2-12.1-12.5-18-1.6-2.2-3.7-4.1-5.6-6.1-1.6-1.8-1.7-3.8-.6-5.9.4-.8.7-1.8 1.2-2.5 5-7.5 10-15 15-22.6 1.8-2.8 3.1-5.9 5.1-8.5 2.1-2.7 3.5-6.1 6.4-8.1.9-.7 2.3-.5 2.9.5.6.9.3 2.1-.7 3.6-3.8 5.7-7.2 11.7-9.7 18.1-2.1 5.5-10.7 18.3-12 19.9-1.1 1.4-1.1 2.5-.2 4.2 3 5.5 7.4 9.7 11.2 14.4l.3.3c2.3 3.2 4.7 6.3 7 9.5 1.8 2.1 2.9 5.9.4 6.8m-45.6-73.9c0 .5 0 1-.1 1.5-.4 3-3.2 5.3-5.8 5.3-4.1-.6-6.2-.9-7.1-4.8-.2-.8-.2-1.8-.3-2.6-.1-2.7 2.6-4.7 4-5.1 1.4-.4 2.8-.7 4.8-.1 2 .3 4.6 2.9 4.5 5.8M120.7 66.4c.3-2.2 1.7-3.5 2.8-4.2 1.9-.6 3.4-2.6 5.6-1.5.9.4 2 1.1 2.4 1.9 1.4 3 2 6.2 1 9.5-.7 2.4-2.4 3.5-4.9 3.2-4.3-.6-7.2-4.3-6.9-8.9"/><path class="st0" d="M164.6 61.2c-.2 3-3.1 6.1-5.5 5.8-1.8-.2-4.8-3.3-4.8-4.9.2-3.9 2.3-6.4 5.1-6.3 2.9.1 5.4 2.7 5.2 5.4m-75 53.8c-.2-.6 0-1.7.1-2.6.2-1.9.5-5.8.3-7.3-.1-1.1-.5-3.5-.6-4.8-.1-.4-.2-1-.5-1.3-1.6-1.5-3.4-2.2-4.3-2.4-1.8-.4-3.5-.4-5.2-.9-.7 2.3-4.3 18-4.6 18.8-.2.5-.8.7-1.3.7-.7 0-1.3.2-2.1.1-1-.1-1.5-.9-1.2-1.8.4-1.1 3.8-17.7 4.2-19.4-.6-.3-4.2-1.2-6.4-4.2-.3.1-8.6 1.9-12.1 2.2-2.3.2-5.7.8-10.5.5-2.1-.2-5.2-.7-7.5-2.4-.1-.1-.4-.3-.3-.5.2-.3.9-.1 1.3.1 1.3.5 4.8 1.5 7 1.5 1.3.2 9-.6 11.5-1 1.9-.3 9.3-1.7 10.6-2.1.5-.2.9.2 1.2.7 2.4 3.6 7.8 4.7 9.6 5.4 1.1.5 5.1 1 5.9 1 .9 0 3.5 1.9 4.6 2.5 1.3.7 1.3 2.3 1.3 2.5.1.8.5 6.9.2 11.7-.2 1.2-.2 1.2-.3 2 1.5.1 1.9-.1 1.9-1.6 0-.4.7-11 1.2-12.7.2-1.4.5-4.1 0-4.2-2.2-.7-4-1.7-5.4-2.9-.4-.3-1-.9-1.3-1.3-1.3-1.5-2.4-3-2.8-5.1-.4-1.9.1-5.7.2-6.7.1-3-1.3-5.4-2.5-7.3-.6-.7-2.1-3-5.3-3.9-.8-.3-2.8-.8-5.7-.7-2.2.1-4.3.5-6.3 1.5l-1.8.9c-.3-.5 0-.9.3-1.2 2.4-2.5 6.7-3.1 8.8-3.1 4.8-.3 8.9 2.4 9.7 3.3.1.1.2.1.4.3.3-.3.7-.6 1.1-.9.9-.8 2.3-1.3 3.4-1.8 5.9-1.8 8.7-1.1 11.2-.4 3.6 1.8 5.9 3.3 9.1 4.3.9.4 1.7.6 2.7.4.2 0 .6.2.6.3 0 .3 0 .6-.4.8-.9.4-1.8.4-2.8.5-1.9.1-3.7-.3-5.4-1-.1 0-2.1-.5-4.2-1-.7-.1-1.8.4-2.2.7-.7.6-2.3 1.2-3.1 1.4-1.3.3-2.9 1-6.3.1-.5-.1-.8-.2-1.5-.3.4 1 .7 1.7 1 2.5.7 1.9.9 2.8.8 4.5-.1 1.3-.1.7-.2 1.9-.4 3.7.3 5.5 1.2 7 .8 1.2 1.6 2.3 2.6 3.3 1.4 1.2 3 1.9 4 2.1 1.5.6 2 .9 1.9 2.6-.8 4.4-1.9 13.7-1.8 14.7-.3 2.9.3 3.6-1.1 4.2-1.2.4-2.2.3-2.9-.2M77.9 95.4c-.6-.2-1.5-.7-2.2-.7-.5 1.7-2.9 13.6-3.3 15.3-.2.8-.8 3.6-.9 4.1 1.1.2 1.9.1 2.1-.4.5-1.4.8-2.4 1.1-4 .9-3.2 2.3-11.3 3.2-14.3m-50-32.6c2.7 2.2 5.2 1.9 6.4 1.6.4-.1.7-.3.8-.1.3.3.2.7-.1 1-.6.9-3.2 6-5.2 11.8-.6 1.8-1.8 5.7-.1 9.6.5 1.5.6 1.2 1.3 2.7.2.5.5 1 .7 1.5.1.2-.1.5-.2.7-.4.8-.9 1.6-1.4 2.5-.9 1.8-4.2 6.2-4.9 7.8-.2.4-.6 2.2-.6 2.5.2 1.8.1 10.3.7 10.3.8 0 1.1-.5.9-1.2 0-3.4.3-6.5.4-8.7.1-.7.3-2.2.6-2.5 2.1-3.1 4.6-6 5-6.5.7-.8 2.2-3 2.9-3.9.3-.4.9-1 1.3-.7.5.3.7.9.4 1.3-.3.5-2.9 4.1-3.7 4.9-1.1 1.8-2.9 3.7-3.6 4.8-.4.6-1 2.2-1 2.9.1 2.3-.4 8.5-.3 9.1 0 1.2-.5 1.9-1.7 2.1-.6.1-1.1.2-1.8 0-1.2-.4-1.3-1.4-1.6-2.3-.2-2.8-.2-5.9-.3-8.9-.3-1.5-.1-3 .8-4.3.6-.9.8-1.3 1.4-2.3 1.2-1.9 1.9-2.7 2.3-3.3-.6 0-1.1.1-1.5.1l-3.9.3c-.7.1-1.5.1-2.2.1-.8 0-.8.3-1.2.8-.3.4-1 1.6-1.3 2.6-.3 1.1-1.3 6.4-1.6 7.9-.2.7-.4 1-1.2 1.3-.4.2-.9.3-1.3.4-1.3.3-2-.3-1.7-1.7.3-1.6.7-3.2 1-4.8.4-2 .9-4.1 1.3-6.1.1-.4.7-2.8.7-3.1 0-.7.3-1.1.9-1.4 1.2-.5 2.4-1 3.7-1.5 1.3-.5 2.5-.9 3.8-1.4l3.9-1.2c.5-.2 1.1-.3 1.6-.5-4.2-6.8 5.1-21.1 5.5-21.5-1.8.2-3.3.3-5.9-1.5-.1-.1-2 .3-4.8.3-1.3 0-3.2-.7-3.8-1.5-.7-1.2-1.1-2.3-.5-4.2.3-1.3 5.5-3.4 6.4-3.8 1.7-2.8 3-3.7 5.6-4.6 2.2-.8 4.4-.7 6.5 0 .3.1.9.4.7.7-.3.6-1.1.1-1.5 0-1-.3-2-.2-3-.1-.7.1-5.2 1.3-7.3 4.8-.3.5-5.6 2-6 3.4-.3.6-.2 1.9.1 2.4.1.6 1.1 1.3 1.7 1.4 1.1.4 4.3.5 5.9 0M14 106.7c.5-1 1.2-5.4 1.4-6.7.1-1 .2-1.3.4-1.6.5-1.2 1.2-2.3 1.7-3.5.3-.6.7-.7 1.4-.8 2.3-.1 6.5-.6 8.8-.8.9 0 2.4-2.1 2.4-2.2 0-.2.1-.8 0-.9-.5-.7-1-1.5-1.5-2.1-1.2.4-2.3.6-3.3 1-2.8 1-5.6 2.1-8.4 3.2-.9.3-1.5.9-1.7 1.9-.5 2.5-1 5.1-1.5 7.6 0 .2-.1.4-.2.7-.3 1.5-.6 2.9-1 4.5.7-.1 1.1-.2 1.5-.3m36.2-37.9c0-.2.1-.7.2-.8-1.2-.9-.8-3.8-1.5-4.3-.1-.1-.2-.4-.2-.6-.1-.3-.5-.7-.2-.9-.2-.7-.6-1.5-.7-2.2-.2-1.7-.1-3.7-.4-5.4-.2-1.8-.5-3.4-.9-5.1-.2-1.1-1.6-4.7-2.4-4.2-.6.5 1.2 2.8 1.7 5.9.2 1.5.5 3 .4 4.8-.7-1.3-1.1-1.5-2.2-1.6-.4 0-.7.1-.8.5-.1.2-.1.5-.2.7.2.2.4.3.6.5-.2.4-.3.7-.5 1 .1.1.2.3.3.4.7.5 1 1.2 1 2-.1 1 .8 1.8.6 2.9 0 .2.3.4.4.7.1.2.2.4.2.6.1 1.2 1.1 4.3 1.9 5.8.2.4.6.6 1 .5 1.6-.5 1.7-1.2 1.7-1.2"/><path class="st0" d="M51.4 68.8c.4-.1.8-.1 1.1-.2 1.8-.3 3.7.2 5.3.4.8.2 2.3.4 2.9.6h.1c.5.2.6.4.3.8 0 .3-.8.4-1.3.3-1-.2-5-1.3-8.8-.8-.1 0 .4-1.1.4-1.1M36.9 49.4c-.7 0-1-.5-1.3-2.3-.2.2-.8 1.6-1.1 2.2-.4.2-.9-.4-.3-1.6l.6-1.2c.4-.7 1.1-.7 1.5-.1.2.3.4.7.6 1.1.4 1 .4 1.9 0 1.9m4.4 2.9c-.5 0-.6-.4-.3-.6.6-.4 1.2-.9 1.9-1.2.8-.4 1.3-.1 1.4.8 0 .7-.1 2-.6 2.1-.7-.3-.6-1-.8-1.8-.4.3-1 .7-1.6.7m-7.5 4.3c.5.2.6.7.5 1.3-.1.5-.5.8-1.2.7-.7 0-1.1-.7-.9-1.4.2-.5.8-.9 1.6-.6M17.5 37.7c.4.3-2.4 2.5-2.5 2.2-.4-.3 2.3-2.5 2.5-2.2m25.9 8.6c-1.1-1-2.1-1.6-3.6-2.2-.6-.2-2.2-1.1-4.6-1.9-.1 0-.4-.3-.5-.4-1.1-.6-2.2-1.1-3.3-1.6-2.1-1-3.4-1.5-5.7-2.1-1.3-.3-3.5-3.6-3.9-3.1-.1.5 1.1 2.2 1 2.2-.5-.1-4.3-.9-4.4-.8-.2.3.4.9 1 1 .8.4 2.2.7 2.5.8 1.4.4 2.8 1 4.2 1.3 1.2.3 3 .8 3.6 1.2 3.1 1.6 5.7 2.9 8.9 4.1.9.3 2 .7 2.8 1.2.8.4 1.5 1.2 1.6 1.2.4-.3.6-.7.4-.9m-3 5.4c-.8.4-1-.3-1.3-.2-.5 0-.8.3-.9 0-.1-.5.2-1.3.4-1.3 1.1.1 2.4 1.4 1.8 1.5M13.7 40.9c-.4.4-1.6 1.5-1.7 1.5-.3.2-.5.5-.8.8-1.5 1.4-2.3 3.3-2.6 5.3C8.3 50 7.3 51.2 6 52c0 0-.4 1.2 1.4.1.2-.2.5-.4.6-.6.7-.9 1.3-1.9 1.4-3 .1-1.3.7-2.9 1.4-3.9.9-1.3 3-3.3 3.3-3.7.3-.3.2-.6-.4 0"/><path class="st1" d="M10 54c-.2-.7-.2-1.4-1.2-1.6-.3-.1-1.2-2.2-3-1.1-.2.1-.4.3-.5.5-.7 1.1-1.5 2.2-2.4 3.2-.8 1.1-1.4 2.3-2 3.5-.2.4-.2.8-.4 1.2-.7 1.7-.6 3.4.2 5 .1.3.1.7.2 1 .2.9.6 1.7 1.3 2.4 1 .9 1.6 2 2 3.3.1.5.4 1 .7 1.4.4.5 1.3.4 1.3-.1.1-1.2.9-2 1.5-2.9.7-1.2 1.6-2.2 2.3-3.4.4-.5.4-1.9.5-2.5.2-1.1.7-1.4.7-2.6 0-2.4-.6-4.9-1.2-7.3M2.6 67c-.1-.1-.2-.4-.2-.6 0-.4.3-1.1.5-1 .4.9.7 1.7 1.1 2.7-.7-.2-1-.7-1.4-1.1m6.1-3.7c-.1.7-.3.8-.9.6-.2 0 .5-3.1.8-4.7.2-.2.3-.2.3 0-.1 1.4-.1 2.7-.2 4.1"/></svg>